<?xml version="1.0" encoding="utf-8"?>
<!-- Generator: Adobe Illustrator 16.0.0, SVG Export Plug-In . SVG Version: 6.00 Build 0)  -->
<!DOCTYPE svg PUBLIC "-//W3C//DTD SVG 1.1//EN" "http://www.w3.org/Graphics/SVG/1.1/DTD/svg11.dtd">
<svg version="1.1" id="Capa_1" xmlns="http://www.w3.org/2000/svg" xmlns:xlink="http://www.w3.org/1999/xlink" x="0px" y="0px"
	 width="560px" height="454px" viewBox="0 0 560 454" enable-background="new 0 0 560 454" xml:space="preserve">
<g id="Agency-2">
	<g id="Agency-1" transform="translate(-172.000000, -1602.000000)">
		<g id="_x31_" transform="translate(172.000000, 1602.000000)">
			<rect id="Rectangle-Copy-16" fill="#FFFFFF" width="560" height="454"/>
		</g>
	</g>
</g>
<g>
	<g>
		<path d="M140.751,304.33c0-50.357,0.011-100.718-0.043-151.076c-0.001-1.898,0.222-2.565,2.405-2.564
			c91.619,0.071,183.238,0.071,274.856,0c2.186-0.001,2.407,0.667,2.405,2.564c-0.055,50.359-0.043,100.719-0.043,151.076
			c-0.938,0.497-1.947,0.25-2.92,0.25c-91.247,0.014-182.494,0.014-273.741,0C142.698,304.58,141.687,304.827,140.751,304.33z"/>
		<path fill="#FEFEFE" d="M140.751,304.33c93.193,0,186.387,0,279.58,0c-0.297,1.348-1.335,0.479-1.891,0.482
			c-10.176,0.08-20.351,0.059-30.524,0.059c-81.578,0-163.156,0.002-244.735-0.033C142.391,304.838,141.349,305.462,140.751,304.33z
			"/>
		<path fill="#F5F5F5" d="M341.144,230.003c1.031-2.713,0.854-4.976,1.287-7.12c0.213-1.054,0.229-2.146,0.441-3.201
			c0.123-0.617-0.258-1.748,0.747-1.699c1.207,0.059,0.729,1.249,0.734,1.951c0.04,5.13,0.021,10.259,0.021,15.39
			c0,0.359-0.007,0.72-0.012,1.078c-0.007,0.494-0.163,0.906-0.727,0.929c-0.643,0.026-0.638-0.479-0.642-0.922
			c-0.012-1.046-0.004-2.089-0.004-3.875c-0.358,0.959-0.461,1.19-0.532,1.434c-0.333,1.132,0.281,3.119-1.056,3.235
			c-1.734,0.15-0.544-2.082-1.38-2.965c-0.103,0.093-0.253,0.164-0.303,0.279c-0.384,0.9,0.646,2.67-0.763,2.678
			c-1.507,0.008-0.684-1.734-0.702-2.637c-0.1-4.949-0.062-9.899-0.029-14.85c0.005-0.632-0.39-1.665,0.663-1.745
			c1.068-0.082,0.813,0.962,0.898,1.614C340.226,222.83,340.638,226.084,341.144,230.003z"/>
		<path fill="#FCFCFC" d="M229.955,237.249c-1.219,0.315-1.055-0.558-1.056-1.251c-0.006-5.574-0.01-11.148,0.011-16.723
			c0.002-0.467-0.264-1.205,0.506-1.298c0.907-0.11,0.908,0.723,0.981,1.297c0.465,3.647,0.89,7.3,1.646,10.982
			c0.389-2.944,0.781-5.888,1.162-8.833c0.081-0.624,0.045-1.273,0.205-1.872c0.162-0.609-0.063-1.701,1.016-1.533
			c0.792,0.123,0.497,1.017,0.5,1.583c0.021,5.395,0.016,10.79,0.005,16.183c-0.001,0.44-0.006,0.929-0.195,1.301
			c-0.087,0.174-0.618,0.124-0.947,0.175c-0.834-1.369-0.455-2.854-0.317-4.316c-0.1-0.352-0.541,0.174-0.217,0.014
			c0.326,1.165,0.059,2.24-0.494,3.273c-0.101,0.5-0.017,1.156-0.822,1.111c-1.122-0.063-0.755-1.011-0.937-1.63
			c-0.819-1.364-0.348-2.881-0.807-4.323C230.644,233.373,230.67,235.346,229.955,237.249z"/>
		<path fill="#EFEFEF" d="M367.945,227.691c-0.001-2.512-0.035-5.026,0.02-7.538c0.019-0.782-0.502-1.994,0.951-2.075
			c1.308-0.072,2.758-0.36,3.61,1.11c0.129,0.222,0.204,0.509,0.206,0.767c0.016,5.5,0.018,11,0.021,16.5
			c0,0.474-0.081,0.94-0.691,0.885c-0.538-0.05-0.692-0.479-0.694-0.968c-0.006-1.975-0.004-3.949-0.021-5.924
			c-0.007-0.854-0.153-1.762-1.223-1.725c-1.133,0.041-0.65,1.062-0.671,1.653c-0.064,1.884-0.016,3.769-0.031,5.653
			c-0.005,0.595,0.131,1.386-0.857,1.271c-0.749-0.087-0.609-0.76-0.611-1.265C367.939,233.257,367.946,230.475,367.945,227.691z"/>
		<path fill="#F3F3F3" d="M148.9,223.315c-0.322,3.797,0.122,7.595,0.085,11.392c-0.019,1.951-0.918,2.664-2.816,2.716
			c-1.54,0.041-1.99-0.442-1.963-1.973c0.086-5.11,0.023-10.223,0.041-15.334c0.003-0.919-0.353-2.131,1.283-2.063
			c1.402,0.058,3.074-0.273,3.343,1.772C149.024,220.97,148.9,222.151,148.9,223.315z"/>
		<path fill="#F0F0F0" d="M383.573,229.154c0,2.248,0.021,4.498-0.017,6.746c-0.01,0.537,0.346,1.423-0.673,1.425
			c-0.718,0.002-0.708-0.679-0.708-1.22c-0.002-5.672-0.004-11.344,0.009-17.017c0.001-0.527,0.007-1.188,0.773-1.148
			c0.802,0.042,0.597,0.755,0.602,1.231c0.025,2.476,0.013,4.953,0.394,7.479c0.551-2.413,1.085-4.829,1.661-7.236
			c0.146-0.615-0.07-1.712,1.077-1.428c0.992,0.246,0.205,1.03,0.217,1.572c0.004,0.177-0.023,0.364-0.077,0.533
			c-1.666,5.185-1.826,10.356-0.015,15.559c0.151,0.437,1.057,1.418-0.286,1.662c-1.007,0.184-0.79-0.762-0.925-1.293
			c-0.573-2.248-1.106-4.508-1.654-6.763C383.825,229.225,383.699,229.189,383.573,229.154z"/>
		<path fill="#F2F2F2" d="M260.608,225.734c0.488-2.244,0.959-4.491,1.478-6.728c0.114-0.492,0.249-1.194,0.964-1.051
			c0.753,0.15,0.438,0.83,0.405,1.32c-0.018,0.266-0.094,0.532-0.177,0.787c-1.696,5.177-1.884,10.34,0.021,15.524
			c0.188,0.512,0.823,1.503-0.351,1.707c-0.825,0.145-0.852-0.77-0.994-1.342c-0.485-1.965-0.931-3.939-1.938-5.855
			c0,2.021,0.004,4.043-0.002,6.063c-0.001,0.545-0.011,1.18-0.76,1.159c-0.807-0.021-0.619-0.727-0.62-1.211
			c-0.013-5.67-0.013-11.338,0.002-17.007c0.002-0.482-0.154-1.212,0.67-1.167c0.721,0.04,0.699,0.703,0.702,1.232
			c0.013,2.149,0.005,4.298,0.005,6.447C260.213,225.654,260.411,225.694,260.608,225.734z"/>
		<path fill="#F2F2F2" d="M286.652,227.003c0.003-2.613-0.01-5.228,0.014-7.84c0.005-0.489-0.13-1.232,0.662-1.196
			c0.752,0.034,0.605,0.764,0.607,1.254c0.019,4.416,0.012,8.832,0.014,13.248c0.001,0.721-0.053,1.449,0.029,2.16
			c0.08,0.676,0.049,1.607,1.086,1.529c0.99-0.074,0.922-0.941,0.922-1.657c0.009-4.146,0.005-8.292,0.005-12.437
			c0-0.812-0.072-1.631,0.024-2.431c0.071-0.604-0.475-1.712,0.67-1.666c0.996,0.041,0.683,1.103,0.686,1.757
			c0.025,4.957,0.021,9.915,0.009,14.872c-0.004,1.623-0.479,2.789-2.45,2.807c-2.062,0.018-2.322-1.194-2.289-2.828
			C286.688,232.051,286.652,229.525,286.652,227.003z"/>
		<path fill="#F6F6F6" d="M191.465,236.188c-0.078,0.297,0.388,1.037-0.471,1.121c-0.894,0.084-0.848-0.627-0.982-1.264
			c-0.141-0.666,0.42-1.888-0.845-1.842c-1.205,0.044-0.692,1.222-0.837,1.934c-0.104,0.51-0.016,1.207-0.76,1.184
			c-0.996-0.033-0.682-0.782-0.628-1.393c0.485-5.539,0.949-11.081,1.442-16.62c0.05-0.563-0.143-1.407,0.845-1.36
			c0.724,0.035,0.698,0.66,0.745,1.203C190.459,224.779,190.957,230.406,191.465,236.188z"/>
		<path fill="#F8F8F8" d="M353.96,236.031c0.502-5.721,0.988-11.256,1.474-16.793c0.055-0.616-0.023-1.382,0.925-1.276
			c0.728,0.082,0.623,0.769,0.668,1.271c0.499,5.626,0.977,11.253,1.484,16.878c0.052,0.572,0.16,1.131-0.596,1.203
			c-0.788,0.074-0.691-0.601-0.828-1.102c-0.205-0.748,0.438-2.138-1.031-1.999c-1.099,0.104-0.502,1.313-0.678,2.013
			c-0.139,0.551-0.195,1.152-0.89,1.088C353.457,237.217,354.056,236.361,353.96,236.031z"/>
		<path fill="#F8F8F8" d="M248.913,234.646c0.025,0.271,0.125,0.559,0.061,0.805c-0.162,0.615,0.671,1.628-0.404,1.813
			c-1.211,0.209-0.687-0.951-0.833-1.535c-0.15-0.601-0.084-1.461-0.816-1.527c-1.073-0.1-0.771,0.953-0.974,1.564
			c-0.198,0.596,0.141,1.713-0.997,1.471c-0.825-0.176-0.391-1.092-0.346-1.629c0.443-5.377,0.933-10.752,1.448-16.125
			c0.052-0.547-0.184-1.467,0.669-1.512c1.077-0.057,0.873,0.997,0.93,1.619c0.458,5.017,0.858,10.038,1.275,15.057
			C248.921,234.646,248.917,234.646,248.913,234.646z"/>
		<path fill="#F8F8F8" d="M162.925,234.504c0.062,0.998,0.063,1.542,0.139,2.074c0.063,0.447-0.112,0.673-0.521,0.745
			c-0.436,0.075-0.673-0.158-0.732-0.565c-0.052-0.354-0.032-0.721-0.096-1.072c-0.109-0.593-0.026-1.416-0.831-1.496
			c-0.929-0.094-0.745,0.807-0.905,1.354c-0.075,0.256-0.065,0.535-0.111,0.801c-0.077,0.438-0.125,0.989-0.699,0.967
			c-0.821-0.031-0.625-0.718-0.587-1.211c0.195-2.602,0.408-5.199,0.629-7.798c0.237-2.778,0.429-5.562,0.781-8.325
			c0.086-0.674-0.321-1.938,0.777-1.98c1.157-0.043,0.832,1.213,0.897,1.914C162.141,224.924,162.541,229.943,162.925,234.504z"/>
		<path fill="#F4F4F4" d="M300.809,227.536c0-2.42-0.059-4.843,0.033-7.26c0.031-0.8-0.707-2.164,1.027-2.212
			c1.429-0.04,3.145-0.277,3.504,1.617c0.468,2.461,0.438,4.983-0.033,7.468c-0.063,0.327-0.306,0.847-0.525,0.88
			c-3.771,0.582-2.352,3.494-2.644,5.677c-0.162,1.218,0.733,3.397-0.708,3.42c-1.305,0.021-0.529-2.199-0.613-3.405
			C300.703,231.667,300.809,229.598,300.809,227.536z"/>
		<path fill="#F1F1F1" d="M177.451,227.401c0,2.516-0.012,5.031,0.003,7.544c0.011,1.636-0.766,2.599-2.401,2.58
			c-1.596-0.018-2.447-0.906-2.417-2.578c0.033-1.797,0.004-3.594,0.014-5.391c0.002-0.44,0-0.933,0.645-0.92
			c0.579,0.012,0.73,0.411,0.732,0.903c0.007,1.438-0.06,2.879,0.039,4.31c0.06,0.861-0.497,2.332,1.014,2.289
			c1.3-0.039,0.775-1.4,0.783-2.189c0.049-4.67-0.001-9.342,0.053-14.012c0.007-0.641-0.555-1.845,0.796-1.796
			c1.052,0.038,0.72,1.063,0.728,1.715C177.47,222.371,177.452,224.886,177.451,227.401z"/>
		<path fill="#E6E6E6" d="M396.594,227.622c0-2.703-0.012-5.405,0.008-8.107c0.007-0.675-0.219-1.607,0.882-1.618
			c1.057-0.01,2.311-0.466,3.12,0.317c0.566,0.546-0.039,1.234-0.815,1.129c-1.876-0.251-1.727,0.935-1.694,2.15
			c0.041,1.531-0.357,3.19,0.115,4.558c0.479,1.384,1.337,2.147,0.052,3.82c-0.826,1.076-0.116,3.305-0.164,5.016
			c-0.042,1.5,1.027,1.121,1.857,1.195c0.365,0.033,0.74,0.145,0.788,0.564c0.07,0.623-0.432,0.65-0.869,0.746
			c-2.606,0.57-3.275,0.018-3.278-2.744C396.591,232.307,396.594,229.964,396.594,227.622z"/>
		<path fill="#ECECEC" d="M411.907,228.288c0-2.341,0.016-4.682-0.011-7.023c-0.008-0.597,0.232-1.28-0.349-1.759
			c-0.415-0.342-1.679,0.003-1.265-0.878c0.551-1.17,1.915-0.471,2.917-0.56c0.544-0.048,1.313-0.359,1.632,0.461
			c0.069,0.179-0.091,0.649-0.178,0.657c-2.247,0.22-1.362,1.954-1.385,3.073c-0.086,4.5-0.023,9.003-0.052,13.505
			c-0.003,0.551,0.336,1.461-0.588,1.514c-0.947,0.053-0.707-0.856-0.713-1.426C411.894,233.331,411.908,230.809,411.907,228.288z"
			/>
		<path fill="#F1F1F1" d="M210.193,231.234c-2.134,0.015-3.896-1.771-3.936-3.986c-0.043-2.417,1.604-4.131,3.979-4.142
			c2.257-0.011,3.938,1.622,3.976,3.862C214.251,229.255,212.399,231.221,210.193,231.234z"/>
		<path fill="#F8F8F8" d="M327.958,226.972c0.028,2.469-1.575,4.249-3.83,4.249c-2.158,0-3.814-1.715-3.847-3.979
			c-0.035-2.5,1.479-4.107,3.888-4.125C326.573,223.098,327.928,224.477,327.958,226.972z"/>
		<path fill="#FAFAFA" d="M276.471,228.073c-1.938,0.271-2.239,1.241-2.079,2.678c0.128,1.155,0.058,2.338,0.017,3.506
			c-0.038,1.089,0.005,2.017,1.511,1.856c0.485-0.051,1.21-0.146,1.12,0.691c-0.084,0.782-0.797,0.506-1.28,0.562
			c-1.683,0.188-2.791,0.09-2.683-2.271c0.225-4.938,0.236-9.901,0-14.838c-0.123-2.561,1.167-2.519,2.906-2.371
			c0.553,0.046,1.136,0.026,1.076,0.811c-0.045,0.585-0.522,0.7-0.979,0.633c-1.59-0.231-1.75,0.673-1.676,1.924
			c0.074,1.255,0.052,2.52,0.007,3.777C274.359,226.405,274.255,227.764,276.471,228.073z"/>
		<path fill="#898989" d="M229.955,237.249c0-2.127,0-4.254,0-6.38c0.853,1.548,1.343,3.125,1.046,4.844
			C230.087,235.84,230.927,237.161,229.955,237.249z"/>
		<path fill="#484848" d="M232.76,236.23c-0.24-1.44,0.394-2.721,1.028-4.063c0,1.698,0,3.396,0,5.095
			C233.446,236.918,233.103,236.574,232.76,236.23z"/>
		<path fill="#050505" d="M369.335,223.099c0.523-1.242-0.703-3.613,0.789-3.656c2.175-0.064,1.171,2.345,1.162,3.636
			c-0.01,1.431,0.956,4.038-1.06,4.033C368.554,227.108,369.877,224.484,369.335,223.099z"/>
		<path fill="#0D0D0D" d="M145.615,223.414c0-0.893-0.049-1.79,0.019-2.678c0.041-0.539-0.387-1.415,0.569-1.503
			c0.963-0.088,1.458,0.57,1.473,1.507c0.026,1.607,0.005,3.215,0.011,4.822c0.004,1.042-0.453,1.881-1.523,1.749
			c-0.977-0.122-0.449-1.14-0.528-1.756C145.546,224.851,145.615,224.128,145.615,223.414z"/>
		<path fill="#0C0C0C" d="M145.616,232.357c0-0.799-0.034-1.602,0.013-2.397c0.032-0.533-0.308-1.362,0.764-1.292
			c0.728,0.049,1.193,0.53,1.228,1.186c0.086,1.595,0.08,3.194,0.051,4.793c-0.015,0.858-0.287,1.649-1.379,1.522
			c-1.156-0.136-0.572-1.09-0.654-1.683C145.542,233.789,145.616,233.068,145.616,232.357z"/>
		<path d="M188.877,232.71c-0.237-1.28-0.041-2.551,0.539-3.832c0.102,1.292,0.204,2.584,0.305,3.876
			C189.44,232.738,189.159,232.725,188.877,232.71z"/>
		<path fill="#383838" d="M356.449,228.41c0.12,1.045,0.244,2.09,0.358,3.135c0.061,0.533,0.146,1.213-0.542,1.282
			c-0.792,0.077-0.683-0.659-0.636-1.151c0.109-1.134,0.287-2.261,0.438-3.39C356.194,228.327,356.321,228.369,356.449,228.41z"/>
		<path fill="#202020" d="M247.212,229.754c0.03,0.352,0.153,0.725,0.072,1.045c-0.172,0.678,0.62,1.93-0.498,1.938
			c-1.034,0.009-0.417-1.24-0.542-1.932C246.684,230.563,246.176,229.445,247.212,229.754z"/>
		<path fill="#757575" d="M247.212,229.754c-0.323,0.352-0.646,0.701-0.968,1.051c-0.122-1.078,0.114-2.072,0.611-3.144
			C247.498,228.404,247.226,229.098,247.212,229.754z"/>
		<path fill="#252525" d="M161.212,230.27c0.04,0.709,0.135,1.422,0.099,2.125c-0.021,0.394-0.374,0.571-0.777,0.391
			c-0.442-0.199-0.248-0.588-0.237-0.918C160.882,231.495,159.89,230.219,161.212,230.27z"/>
		<path fill="#CACACA" d="M160.34,228.721c-0.225-0.92-0.007-1.707,0.903-2.582c0,0.65,0,1.065,0,1.48
			C160.871,227.927,161.164,228.781,160.34,228.721z"/>
		<path fill="#404040" d="M161.212,230.27c-0.305,0.532-0.61,1.063-0.916,1.598c0.04-0.708,0.08-1.415,0.119-2.122
			c0.073-0.474,0.314-0.695,0.808-0.538C161.219,229.561,161.216,229.915,161.212,230.27z"/>
		<path fill="#7A7A7A" d="M161.223,229.206c-0.27,0.18-0.538,0.358-0.808,0.538c-0.025-0.342-0.051-0.684-0.076-1.023
			c0.301-0.367,0.602-0.734,0.903-1.102C161.236,228.146,161.23,228.677,161.223,229.206z"/>
		<path fill="#1B1B1B" d="M304.046,223.241c0,1.066,0.042,2.135-0.017,3.198c-0.033,0.638-0.618,0.875-1.131,0.918
			c-0.768,0.065-0.746-0.594-0.752-1.107c-0.021-1.867-0.019-3.734-0.008-5.601c0.004-0.598-0.144-1.38,0.746-1.438
			c0.871-0.057,1.235,0.498,1.202,1.363c-0.032,0.888-0.007,1.778-0.007,2.667C304.068,223.241,304.059,223.241,304.046,223.241z"/>
		<path fill="#030303" d="M212.324,227.189c-0.117,1.249-0.508,2.545-2.092,2.524c-1.529-0.02-2.115-1.221-2.103-2.619
			c0.012-1.363,0.502-2.639,2.066-2.631C211.731,224.472,212.208,225.729,212.324,227.189z"/>
		<path fill="#0A0A0A" d="M326.24,227.602c-0.047,0.926-0.509,2.104-2.075,2.109c-1.564,0.007-2.112-1.206-2.141-2.552
			c-0.03-1.474,0.563-2.791,2.24-2.709C325.748,224.521,326.262,225.74,326.24,227.602z"/>
	</g>
</g>
<g>
	<g>
		<path fill-rule="evenodd" clip-rule="evenodd" fill="#FEFEFE" d="M281.102,326.263c-58.984,0-117.968-0.024-176.951,0.08
			c-2.661,0.005-2.95-0.741-2.947-3.086c0.068-63.726,0.072-127.451-0.012-191.177c-0.003-2.489,0.495-3.024,3.011-3.023
			c117.852,0.079,235.704,0.08,353.556-0.005c2.729-0.002,3.128,0.756,3.125,3.253c-0.074,63.726-0.076,127.451,0.007,191.176
			c0.003,2.365-0.45,2.852-2.836,2.849C399.069,326.244,340.086,326.263,281.102,326.263z"/>
		<path fill-rule="evenodd" clip-rule="evenodd" fill="#050505" d="M360.863,234.794c-1.307,1.699-1.025,2.832-0.937,3.809
			c0.115,1.263-0.112,2.044-1.447,2.162c-1.948,0.173-0.424-1.299-0.815-1.936c-0.412-0.666-0.281-1.667-0.956-2.498
			c0,0.938,0.021,1.877-0.006,2.813c-0.021,0.774,0.161,1.686-1.137,1.64c-1.075-0.037-0.938-0.815-0.938-1.447
			c0.004-7.726,0.024-15.453,0.077-23.177c0.002-0.269,0.38-0.535,0.778-1.063c1.064,1.507,1.955,2.655,1.663,4.701
			c-0.353,2.463,1.362,4.899,0.596,7.512c-0.063,0.215,0.463,0.857,0.716,0.857c0.641,0,0.933-0.546,1.004-1.164
			c0.337-2.907,0.791-5.808,0.944-8.726c0.068-1.281-0.098-2.902,1.308-2.936c1.821-0.044,0.838,1.771,0.851,2.68
			c0.096,7.034,0.071,14.069,0.03,21.104c-0.003,0.566,0.894,1.743-0.753,1.644c-1.002-0.062-0.965-0.79-0.973-1.477
			C360.853,238.06,360.863,236.826,360.863,234.794z"/>
		<path fill-rule="evenodd" clip-rule="evenodd" fill="#040404" d="M219.356,238.909c-0.25,0.733,0.306,1.977-1.25,1.873
			c-1.344-0.091-0.799-1.097-0.897-1.772c-0.07-0.481-0.197-0.858-0.714-0.986c-0.216-1.113,0.193-2.26-0.201-3.366
			c0.613,1.867-0.711,3.744,0.062,5.61c-1.333,0.989-1.959,0.613-1.959-1.006c0.003-7.495-0.005-14.992,0.012-22.487
			c0.001-0.613-0.26-1.5,0.801-1.54c1.209-0.045,1.125,1.04,1.218,1.737c0.532,4.021,0.975,8.053,1.451,12.082
			c0.06,0.514-0.238,1.192,0.642,1.362c0.567-4.468,1.152-8.93,1.687-13.398c0.102-0.855-0.357-1.879,1.204-1.839
			c1.519,0.038,1.202,1.069,1.204,1.924c0.013,7.15,0.021,14.299-0.006,21.449c-0.005,1.26-0.013,2.725-2.021,1.705
			c-1.183-2.471-0.191-5.041-0.296-7.562c-0.089-0.458-0.702,0.237-0.312-0.012C220.588,234.84,220.073,236.886,219.356,238.909z"/>
		<path fill-rule="evenodd" clip-rule="evenodd" fill="#0C0C0C" d="M105.737,240.685c0-7.57-0.044-15.153,0.07-22.733
			c0.011-0.739-1.099-2.276,0.658-2.4c1.803-0.127,4.184-0.686,5.104,1.358c1.385,3.078,1.038,6.573,0.389,9.729
			c-0.24,1.171-0.4,2.03-0.061,3.125c0.795,2.573,0.751,5.338,0.174,7.8C111.37,240.565,108.666,241.21,105.737,240.685z"/>
		<path fill-rule="evenodd" clip-rule="evenodd" fill="#0F0F0F" d="M291.161,239.49c1.993-0.896,1.648-2.491,1.653-3.915
			c0.016-6.114-0.017-12.228,0.037-18.342c0.007-0.729-0.643-2.12,1.005-1.972c1.235,0.112,0.738,1.236,0.742,1.935
			c0.033,6.69,0.024,13.381,0.021,20.072c0,2.209-1.273,3.469-3.318,3.457c-2.002-0.012-3.22-1.316-3.225-3.438
			c-0.016-6.69-0.006-13.382-0.007-20.072c0-1.024-0.243-2.147,1.45-2.046c1.517,0.091,1.135,1.166,1.138,1.999
			c0.021,6.23,0.009,12.458,0.014,18.688C290.673,237,290.461,238.168,291.161,239.49z"/>
		<path fill-rule="evenodd" clip-rule="evenodd" fill="#0D0D0D" d="M412.943,229.319c0,3.806,0.003,6.847-0.003,9.886
			c-0.001,0.826,0.012,1.699-1.213,1.571c-1.193-0.125-0.561-1.007-0.563-1.546c-0.022-7.38-0.02-14.761,0.005-22.14
			c0.002-0.716-0.421-1.802,0.849-1.861c1.349-0.061,0.896,1.088,0.906,1.77c0.048,2.994,0.021,5.987,0.021,9.292
			c2.444-3.471,1.138-7.865,3.462-11.199c2.306,1.776,0.925,3.906,0.41,5.242c-2.239,5.813-1.359,11.407,0.293,17.065
			c0.22,0.751,0.391,1.52,0.533,2.289c0.111,0.605,0.063,1.105-0.797,1.123c-0.773,0.016-0.543-0.381-0.744-0.889
			c-1.146-2.894-2.319-5.73-1.969-8.953C414.166,230.676,413.688,230.325,412.943,229.319z"/>
		<path fill-rule="evenodd" clip-rule="evenodd" fill="#040404" d="M394.885,229.431c0,3.211,0.021,6.428-0.016,9.644
			c-0.009,0.714,0.308,1.722-1.045,1.703c-1.344-0.018-1.012-1.025-1.015-1.73c-0.027-7.274-0.025-14.55-0.004-21.824
			c0.002-0.726-0.263-1.87,1.042-1.662c1.575,0.251,3.513-1,4.685,1.108c0.541,0.973,0.519,1.983,0.519,3.018
			c0,6.118,0.04,12.236-0.042,18.353c-0.012,0.935,0.838,2.718-1.061,2.646c-1.723-0.066-0.49-1.629-0.577-2.429
			c-0.22-2.055-0.23-4.164-0.026-6.223C397.534,230.11,396.806,229.372,394.885,229.431z"/>
		<path fill-rule="evenodd" clip-rule="evenodd" fill="#070707" d="M128.906,223.938c0.867,4.563-0.092,9.306,1.276,13.833
			c0.292,0.966,0.575,2.573-0.553,2.907c-1.492,0.441-1.57-1.21-1.859-2.245c-0.189-0.675,0.389-1.877-0.954-1.722
			c-1.07,0.123-0.925,1.181-0.813,1.944c0.151,1.035-0.023,2.088-1.138,1.998c-1.199-0.097-1.06-0.957-0.92-2.214
			c0.782-7.059,1.227-14.156,1.783-21.241c0.063-0.805-0.588-1.872,1.004-2.007c1.866-0.158,1.165,1.078,1.269,1.986
			C128.256,219.436,128.598,221.685,128.906,223.938z"/>
		<path fill-rule="evenodd" clip-rule="evenodd" fill="#060606" d="M234.523,235.777c0.493-6.305,1.556-12.561,1.529-18.904
			c-0.003-0.769-0.298-1.658,1.015-1.687c1.039-0.023,1.304,0.37,1.367,1.41c0.181,3.03,0.365,6.08,0.868,9.067
			c0.713,4.232,0.25,8.569,1.297,12.773c0.158,0.632,0.578,1.978-0.551,2.289c-1.419,0.391-1.48-1.081-1.916-1.908
			c-0.36-0.686,0.625-2.136-0.92-2.081c-0.93,0.033-0.963,1.164-0.864,1.951c0.128,1.02,0.005,2.056-1.151,1.981
			c-1.483-0.095-0.685-1.325-0.676-2.131C234.53,237.618,234.523,236.697,234.523,235.777z"/>
		<path fill-rule="evenodd" clip-rule="evenodd" fill="#050505" d="M165.525,240.998c-0.266-0.462-0.363-0.867-0.616-1.03
			c-1.251-0.804,1.064-3.499-1.537-3.281c-2.119,0.177-0.658,2.207-1.055,3.335c-0.261,0.74-0.702,0.786-1.288,0.738
			c-0.855-0.07-0.718-0.726-0.703-1.272c0.108-4.094,0.606-8.184,1.04-12.224c0.372-3.461-0.093-7.03,1.005-10.432
			c0.217-0.67,0.188-1.512,1.004-1.519c0.805-0.007,0.997,0.757,1.063,1.514c0.444,5.081,0.945,10.158,1.371,15.24
			C166.054,234.986,167.059,237.951,165.525,240.998z"/>
		<path fill-rule="evenodd" clip-rule="evenodd" fill="#040404" d="M375.992,241.011c-1.892-2.25-0.994-4.69-0.891-6.889
			c0.222-4.729,0.869-9.437,1.188-14.163c0.116-1.719,0.222-4.345,1.455-4.428c1.729-0.118,1.583,2.764,1.586,3.89
			c0.015,4.318,0.84,8.556,0.901,12.853c0.031,2.168,0.39,4.331,0.612,6.494c0.089,0.857,0.588,1.926-0.918,1.988
			c-1.321,0.055-0.92-1.019-1.011-1.735c-0.042-0.342,0.02-0.695-0.014-1.039c-0.062-0.617,0.223-1.448-0.929-1.396
			c-0.889,0.039-1.255,0.476-1.15,1.302C376.962,238.98,376.437,239.852,375.992,241.011z"/>
		<path fill-rule="evenodd" clip-rule="evenodd" fill="#0B0B0B" d="M254.587,240.264c-1.232,0.864-2.021,0.788-2.021-0.954
			c0-7.632-0.019-15.264,0.015-22.895c0.009-1.948,1.043-1.315,2.004-0.672c-0.593,3.066-0.145,6.164-0.263,9.243
			c-0.018,0.46,0.014-0.168,0.089,0.288c0.302-0.076-0.044-0.428,0.222-0.521c1.667-2.422,1.371-5.451,2.457-8.065
			c0.197-0.475-0.626-1.37,0.586-1.46c0.449-0.034,1.068-0.125,1.332,0.116c1.169,1.064-0.652,1.187-0.616,1.526
			c0.558,5.145-3.191,9.877-1.374,15.144c0.75,2.172,1.211,4.443,1.795,6.673c0.185,0.705,0.793,1.655-0.296,1.966
			c-1.212,0.346-1.19-0.728-1.551-1.601c-0.961-2.333-0.617-5.077-2.308-7.153C254.03,234.681,254.198,237.472,254.587,240.264z"/>
		<path fill-rule="evenodd" clip-rule="evenodd" fill="#080808" d="M306.714,228.04c0-3.343-0.005-6.688,0.002-10.032
			c0.003-1.225-0.365-2.661,1.747-2.5c1.71,0.131,3.868-0.687,4.264,1.997c0.438,2.968,0.378,5.96,0.077,8.95
			c-0.102,1.01-0.566,1.993-1.461,2.068c-3.74,0.315-2.804,3.029-2.855,5.242c-0.038,1.613,0.091,3.236-0.051,4.839
			c-0.063,0.712,0.899,2.031-0.598,2.114c-1.698,0.093-1.077-1.437-1.095-2.301C306.671,234.959,306.714,231.499,306.714,228.04z"/>
		<path fill-rule="evenodd" clip-rule="evenodd" fill="#060606" d="M148.463,227.133c0,3.35,0.119,6.706-0.051,10.047
			c-0.087,1.709-0.3,3.409-2.957,3.506c-2.694,0.098-2.947-1.749-3.166-3.338c-0.312-2.268-0.094-4.609-0.076-6.919
			c0.004-0.525-0.156-1.233,0.688-1.297c0.996-0.074,1.055,0.656,1.053,1.373c-0.007,2.31,0.028,4.621-0.077,6.927
			c-0.034,0.746-0.158,1.553,0.655,1.684c0.8,0.129,1.482-0.619,1.716-1.311c0.247-0.729,0.116-1.594,0.117-2.398
			c0.005-5.891-0.01-11.781,0.016-17.671c0.004-0.944-0.401-2.381,1.298-2.176c1.363,0.164,0.732,1.454,0.752,2.22
			C148.512,220.896,148.465,224.015,148.463,227.133z"/>
		<path fill-rule="evenodd" clip-rule="evenodd" fill="#0E0E0E" d="M274.833,227.079c0.915,1.537,0.091,2.001-1.304,2.111
			c-1.097,2.595-0.37,5.307-0.419,7.955c-0.042,2.227,2.203,0.804,3.151,1.575c1.099,2.385-0.683,2.06-1.992,2.056
			c-1.643-0.005-3.612,0.553-3.572-2.299c0.079-5.516,0.022-11.033,0.022-16.551c0-0.919,0.137-1.863-0.024-2.754
			c-0.602-3.326,0.693-4.665,4.003-3.978c0.753,0.156,2.021-0.602,2.073,0.979c0.051,1.543-1.169,1.012-1.975,1.124
			c-0.453,0.063-0.913,0.083-1.369,0.121c-0.812,2.838-0.232,5.737-0.354,8.605C273.022,227.242,273.706,227.626,274.833,227.079z"
			/>
		<path fill-rule="evenodd" clip-rule="evenodd" fill="#020202" d="M435.064,238.837c0.381,3.424-2.231,1.528-3.497,1.892
			c-1.363,0.393-2.031-0.191-2.016-1.788c0.075-7.146,0.032-14.292,0.033-21.44c0-0.92-0.128-2.076,1.079-2.206
			c1.327-0.144,2.952-0.676,3.976,0.351c1.038,1.042-0.098,1.688-1.039,1.585c-1.916-0.208-2.014,0.796-1.949,2.247
			c0.087,1.956-0.005,3.919,0.037,5.878c0.014,0.609-0.327,1.431,0.635,1.699c2.557,0.711,1.996,1.37-0.009,2.08
			c-1.062,0.375-0.609,1.337-0.62,2.044c-0.036,2.304,0.02,4.609,0.041,6.914C432.682,239.067,434.111,237.891,435.064,238.837z"/>
		<path fill-rule="evenodd" clip-rule="evenodd" fill="#0A0A0A" d="M342.026,226.994c0.016,3.005-2.288,5.422-5.27,5.53
			c-3.164,0.115-4.949-1.878-5.054-5.64c-0.065-2.384,2.733-5.396,4.962-5.34C339.877,221.625,342.01,223.793,342.026,226.994z"/>
		<path fill-rule="evenodd" clip-rule="evenodd" fill="#0B0B0B" d="M189.744,232.238c-2.395-0.115-4.602-2.563-4.507-5
			c0.13-3.346,2.568-5.87,5.48-5.677c2.69,0.178,5.04,2.825,4.947,5.569C195.563,230.124,192.936,232.391,189.744,232.238z"/>
		<path fill-rule="evenodd" clip-rule="evenodd" fill="#1B1B1B" d="M449.047,217.437c-0.86-0.183-2.122-0.057-2.015-1.332
			c0.104-1.233,1.277-0.507,1.961-0.605c0.789-0.114,1.607-0.055,2.41-0.015c0.641,0.031,1.458-0.23,1.726,0.68
			c0.288,0.981-0.383,1.032-1.121,1.19c-1.561,0.334-0.815,1.665-0.825,2.509c-0.073,6.323-0.044,12.646-0.037,18.97
			c0.002,1.593-0.102,2.966-2.124,1.351C449.619,232.603,449.592,225.019,449.047,217.437z"/>
		<path fill-rule="evenodd" clip-rule="evenodd" fill="#DEDEDE" d="M449.047,217.437c0.733-0.569,0.377,0.102,0.368,0.334
			c-0.286,7.469,0.463,14.955-0.394,22.413C449.029,232.602,449.038,225.019,449.047,217.437z"/>
		<path fill-rule="evenodd" clip-rule="evenodd" fill="#DEDEDE" d="M254.633,224.752c0.145,0.94,0.289,1.878,0.434,2.817
			c-0.294,0.01-0.588,0.021-0.882,0.031c0.249-3.957-0.274-7.887,0.401-11.858C254.927,218.744,254.858,221.748,254.633,224.752z"/>
		<path fill-rule="evenodd" clip-rule="evenodd" fill="#707070" d="M274.833,227.079c-0.923,0.373-1.972,1.146-1.933-0.835
			c0.058-2.928,0.036-5.858,0.058-8.786c0-0.072,0.124-0.206,0.178-0.201c0.102,0.011,0.194,0.103,0.292,0.161
			c0.021,2.495,0.058,4.99,0.056,7.485C273.483,225.932,273.35,226.992,274.833,227.079z"/>
		<path fill-rule="evenodd" clip-rule="evenodd" fill="#9E9E9E" d="M254.587,240.264c-1.114-3.566-0.267-7.164-0.473-11.063
			c1.886,0.958,0.443,1.904,0.545,2.696C254.635,234.687,254.611,237.476,254.587,240.264z"/>
		<path fill-rule="evenodd" clip-rule="evenodd" fill="#707070" d="M276.262,238.721c-2.729,0.306-3.933-0.751-3.359-3.597
			c0.393-1.95-0.66-4.066,0.627-5.934c-0.012,1.593,0.099,3.198-0.067,4.775C273.215,236.31,273.559,238.174,276.262,238.721z"/>
		<path fill-rule="evenodd" clip-rule="evenodd" fill="#666666" d="M219.356,238.909c0.257-2.352,0.514-4.703,0.772-7.055
			c0.153,0.006,0.307,0.012,0.46,0.018c0,2.795,0,5.59,0,8.385C219.66,240.281,220.151,239.007,219.356,238.909z"/>
		<path fill-rule="evenodd" clip-rule="evenodd" fill="#7B7B7B" d="M216.356,240.268c-1.223-2.342-0.179-4.791-0.396-7.187
			c0.908,1.582,1.64,3.174,0.534,4.942C216.449,238.771,216.403,239.521,216.356,240.268z"/>
		<path fill-rule="evenodd" clip-rule="evenodd" fill="#515151" d="M435.064,238.837c-1.166-0.091-2.332-0.181-3.497-0.283
			c-0.031-0.003-0.092-0.178-0.063-0.237c0.043-0.091,0.15-0.151,0.231-0.224C432.823,238.439,434.247,237.281,435.064,238.837z"/>
		<path fill-rule="evenodd" clip-rule="evenodd" fill="#FAFAFA" d="M109.716,222.592c0.004,1.031-0.035,2.063,0.018,3.093
			c0.035,0.689,0.266,1.503-0.722,1.566c-0.791,0.051-1.551-0.14-1.517-1.326c0.073-2.519,0.016-5.042,0.028-7.563
			c0.003-0.686-0.002-1.489,1.028-1.309c0.711,0.125,1.203,0.545,1.174,1.414C109.678,219.842,109.712,221.218,109.716,222.592z"/>
		<path fill-rule="evenodd" clip-rule="evenodd" fill="#FEFEFE" d="M109.682,234.406c-0.898,1.147,1.639,4.099-1.182,4.139
			c-1.984,0.027-0.581-2.8-0.947-4.301c-0.186-0.76-0.149-1.624-0.001-2.4c0.171-0.899-0.722-2.484,0.655-2.587
			c1.843-0.137,1.455,1.603,1.473,2.813C109.69,232.759,109.682,233.448,109.682,234.406z"/>
		<path fill-rule="evenodd" clip-rule="evenodd" fill="#E9E9E9" d="M397.35,221.719c0,1.148,0.054,2.301-0.017,3.446
			c-0.057,0.901-0.106,1.966-1.383,1.991c-1.531,0.032-1.055-1.203-1.074-1.998c-0.055-2.297-0.086-4.6,0.044-6.89
			c0.021-0.37-1.425-1.613,0.551-1.449c0.931,0.078,1.897-0.173,1.986,1.119c0.086,1.255,0.019,2.52,0.019,3.78
			C397.434,221.718,397.392,221.718,397.35,221.719z"/>
		<path fill-rule="evenodd" clip-rule="evenodd" fill="#F8F8F8" d="M127.239,231.883c0.387,0.639,1.032,1.225,0.613,1.998
			c-0.098,0.18-1.07,0.193-1.201-0.005C126.127,233.078,126.893,232.526,127.239,231.883z"/>
		<path fill-rule="evenodd" clip-rule="evenodd" fill="#757575" d="M237.672,231.09c0.246,0.635,0.173,1.207-0.488,2.145
			c-0.479-1.347-0.714-2.316-0.401-3.39C237.853,229.708,237.564,230.539,237.672,231.09z"/>
		<path fill-rule="evenodd" clip-rule="evenodd" fill="#6C6C6C" d="M237.672,231.09c-0.296-0.415-0.593-0.831-0.889-1.245
			c0.25-0.714,0.5-1.429,0.75-2.143c0.165,0.008,0.33,0.015,0.494,0.023C237.909,228.847,237.791,229.969,237.672,231.09z"/>
		<path fill-rule="evenodd" clip-rule="evenodd" fill="#E8E8E8" d="M162.796,234.536c0.119-1.899,0.221-3.525,0.322-5.151
			C163.168,231.022,165.265,232.808,162.796,234.536z"/>
		<path fill-rule="evenodd" clip-rule="evenodd" fill="#CCCCCC" d="M378.316,232.122c0.141,0.745,1.141,1.7-0.154,2.109
			c-1.095,0.347-1.47-0.825-1.075-1.437c0.759-1.173-0.882-3.148,0.651-3.398C378.793,229.225,378.688,231.046,378.316,232.122z"/>
		<path fill-rule="evenodd" clip-rule="evenodd" fill="#E3E3E3" d="M308.398,222.058c0.61-1.478-1.137-4.809,0.989-4.837
			c2.58-0.035,1.273,3.256,1.491,5.117c0.144,1.236-0.068,2.512-0.121,3.771c-0.991-0.062,0.829,1.938-0.929,1.278
			c-0.605-0.227-1.658,0.125-1.468-1.253C308.534,224.888,308.398,223.6,308.398,222.058z"/>
		<path fill-rule="evenodd" clip-rule="evenodd" fill="#FEFEFE" d="M334.266,227.648c0.244-2.106,0.004-3.65,2.329-3.58
			c2.478,0.074,2.477,1.967,2.667,3.472c0.217,1.713-1.313,2.94-2.624,2.837C335.117,230.255,333.902,228.927,334.266,227.648z"/>
		<path fill-rule="evenodd" clip-rule="evenodd" fill="#FDFDFD" d="M187.722,227.104c-0.217-2.468,1.52-3.451,3.643-3.108
			c1.169,0.188,1.995,1.843,1.786,3.287c-0.229,1.586-0.62,3.396-2.828,3.129C188.657,230.211,187.297,229.414,187.722,227.104z"/>
	</g>
</g>
</svg>
