<?xml version="1.0" encoding="utf-8"?>
<!-- Generator: Adobe Illustrator 16.0.0, SVG Export Plug-In . SVG Version: 6.00 Build 0)  -->
<!DOCTYPE svg PUBLIC "-//W3C//DTD SVG 1.1//EN" "http://www.w3.org/Graphics/SVG/1.1/DTD/svg11.dtd">
<svg version="1.1" id="Capa_1" xmlns="http://www.w3.org/2000/svg" xmlns:xlink="http://www.w3.org/1999/xlink" x="0px" y="0px"
	 width="560px" height="454px" viewBox="0 0 560 454" enable-background="new 0 0 560 454" xml:space="preserve">
<g id="Agency-2">
	<g id="Agency-1" transform="translate(-172.000000, -1602.000000)">
		<g id="_x31_" transform="translate(172.000000, 1602.000000)">
			<rect id="Rectangle-Copy-16" fill="#FFFFFF" width="560" height="454"/>
		</g>
	</g>
</g>
<g>
	<g>
		<path fill-rule="evenodd" clip-rule="evenodd" fill="#FEFEFE" d="M320.5,147c12,0,24,0,36,0c1.665,1.8,1.251,4.052,1.276,6.174
			c0.076,6.426-0.041,12.854,0.077,19.806c6.681-5.621,11.478-11.983,16.303-18.327c2.006-2.638,3.697-5.543,6.344-7.652
			c3,0,6,0,9,0c2.589,5.637,0.308,11.051-1.097,16.35c-1.537,5.802-4.548,11.056-8.391,15.686
			c-7.872,9.483-16.615,18.019-27.442,24.083c-0.208,0.165-0.467,0.301-0.732,0.386c0.615,0.1,0.925-0.539,1.489-0.62
			c9.142-5.846,17.74-12.36,25.662-19.754c0.486-0.454,0.94-0.948,1.472-1.348c1.444-1.086,2.964-2.711,4.844-1.601
			c1.701,1.005,0.965,3.017,0.704,4.601c-2.485,15.062-11.506,25.106-24.806,31.615c-4.865,2.381-9.766,4.773-14.938,6.494
			c6.986-1.719,13.354-4.929,19.751-8.091c1.725-0.853,3.683-2.307,5.531-0.656c1.665,1.485,1.222,3.688,0.787,5.654
			c-1.273,5.764-4.992,9.778-9.903,12.542c-3.324,1.87-4.759,4.182-4.646,7.977c0.196,6.647,0.226,13.311-0.007,19.956
			c-0.147,4.204,1.597,5.529,5.602,5.442c8.313-0.182,16.633-0.08,24.949-0.037c2.131,0.011,4.373-0.32,6.171,1.321
			c0,10.333,0,20.667,0,31c-1.948,0.818-2.854,2.477-3.735,4.282c-1.004,2.059-3.14,2.753-5.118,3.559
			c-0.435,0.183-0.884,0.314-1.343,0.418c-3.113,0.351-3.365-1.795-3.693-4.068c-0.915-6.337,0.642-12.532,0.945-18.797
			c0.052-1.068,1.006-2.495-0.739-2.875c-2.098-0.457-4.315-0.544-6.386,0.128c-1.806,0.585-0.475,1.878-0.396,2.904
			c0.302,3.943-0.543,7.911,0.241,11.847c-0.267,2.157-1.056,4.321,0.085,6.465c0.227,0.392,0.392,0.806,0.512,1.239
			c0.016,0.458-0.108,0.874-0.382,1.243c-2.095,0.844-2,3.1-2.991,4.655c-2.667,0-5.333,0-8,0c-0.326-1.066,0.391-1.579,1.176-1.797
			c3.923-1.09,3.938-3.796,2.944-7.861c-1.81,3.07-3.345,5.625-6.533,6.083c-0.688,0.255-1.362,0.539-2.073,0.728
			c-2.772,0.335-3.605-1.599-3.665-3.668c-0.183-6.299-0.926-12.633,0.582-18.884c0.222-0.919,1.088-2.085-0.079-2.676
			c-2.002-1.014-4.231-0.676-6.344-0.224c-1.469,0.313-0.776,1.443-0.718,2.408c0.392,6.474,0.156,12.945-0.189,19.414
			c-0.129,0.479-0.338,0.926-0.611,1.338c-3.382,1.699-4.469-1.024-5.399-3.15c-2.111-4.823-4.357-9.615-5.466-14.828
			c-0.447-2.099-1.02-4.295-3.38-5.117c-1.725-0.602-3.806-1.138-5.217,0.097c-1.593,1.395,0.547,2.546,1.05,3.783
			c0.707,1.737,1.197,3.427,0.298,5.232c-3.898,2.181-4.325,6.401-5.876,9.968c-1.208,2.776-2.333,5.722-6.376,4.547
			c-0.364-0.322-0.612-0.721-0.75-1.187c0.586-5.331-1.521-10.619,0.55-16.126c1.217-3.235-1.987-6.287-5.642-6.75
			c-1.658-0.21-3.322-0.055-4.981,0.116c-0.959,0.193-1.913,0.389-2.896,0.345c-0.667-0.02-1.325-0.138-1.988-0.196
			c-5.74-0.512-5.7-0.513-5.189,5.259c0.484,5.476-0.338,10.999,0.563,16.463c0.161,0.729,0.256,1.467,0.28,2.213
			c0.018,0.747-0.089,1.478-0.316,2.189c-0.309,0.97-1.09,1.58-1.753,2.281c-4,0-8,0-12,0c1.441-2.782,0.435-5.476-0.308-8.188
			c0.257-5.456-0.973-10.978,0.795-16.344c3.143-2.054,3.457,1.918,5.354,2.527c1.985-5.118,1.734-5.479-4.018-5.766
			c-0.716-0.006-1.426-0.066-2.136-0.143c-5.537,0.155-6.245,0.821-6.364,6.266c-0.072,3.287-0.151,6.584,0.017,9.863
			c0.187,3.65,0.052,7.19-1.67,10.512c-0.128,0.475-0.358,0.895-0.67,1.271c-5.333,0-10.667,0-16,0
			c3.433-4.243,0.712-8.856,0.791-13.304c1.524-1.477,1.986-3.308,1.945-5.382c-0.043-2.13-0.078-4.27,0.69-6.335
			c0.404-1.086,1.803-2.438-0.263-3.236c-1.391-0.538-3.023-0.714-4.271,0.254c-1.639,1.272,0.071,2.273,0.579,3.329
			c0.739,1.538,0.829,3.16,0.759,4.822c-0.161,1.246-0.352,2.477-1.669,3.094c-3.176-0.815-4.075-3.738-5.294-6.145
			c-1.686-3.329-3.935-5.258-7.791-4.853c-0.729,1.064-5.568-2.501-2.772,2.498c0.515,0.843,0.844,1.715,0.499,2.712
			c-1.93,4.313-0.868,8.793-0.767,13.224c0.057,2.468,0.372,5.122-2.843,6.095c-0.982,0.132-1.941-0.086-2.906-0.2
			c-5.528,0.306-5.592,0.254-5.114-5.169c0.088-1.003-0.132-1.959-0.22-2.937c1.975-4.758,0.432-10.233,3.018-14.878
			c0.335-0.603,0.337-1.438-0.352-1.725c-2.208-0.919-4.63-0.951-6.751-0.143c-2.069,0.789-0.413,2.568-0.241,3.871
			c0.409,3.103,0.206,6.271,1.035,9.329c0.187,1.247,0.147,2.483-0.102,3.711c-0.088,0.485-0.207,0.967-0.338,1.445
			c-0.604,2.201-0.74,4.989-3.811,5.034c-2.592,0.038-3.395-2.396-4.208-4.337c-1.977-4.724-3.988-9.439-4.913-14.536
			c-0.387-2.133-1.021-4.308-3.66-4.752c-1.63-0.273-3.579-0.767-4.822,0.289c-1.621,1.377,0.551,2.516,0.973,3.773
			c0.486,1.451,0.843,2.852,0.243,4.337c-3.36,2.208-3.728,6.092-5.206,9.353c-0.682,4.102-5.473,6.203-5.22,10.76
			c-4.667,0-9.333,0-14,0c-0.331-0.426-0.537-0.906-0.629-1.435c-2.147-7.123-2.158-14.319-0.927-21.609
			c0.519-3.071,0.055-5.697-4.149-5.567c-2.912,0.089-3.995,0.831-3.53,4.169c1.144,8.217,1.509,16.492-1.764,24.442
			c-1.654-0.048-3.192,0.629-3.123-2.503c0.292-13.16,0.123-26.33,0.123-39.497c0.401-0.347,0.838-0.639,1.308-0.881
			c2.948-0.793,5.962-0.429,8.946-0.434c19.82-0.036,39.641,0.042,59.461-0.045c9.811-0.044,19.154-2.237,27.824-6.95
			c1.413-0.769,3.317-1.385,3.11-3.455c-0.168-1.68-1.805-2.3-3.13-2.95c-8.26-4.051-17.121-6.479-25.775-9.461
			c-6.609-2.276-13.383-4.126-19.431-7.8c-3.444-2.092-6.751-4.346-8.675-8.047c-0.75-1.441-1.909-3.122-0.612-4.616
			c1.17-1.348,2.821-0.27,4.182,0.159c8.57,2.699,16.773,6.517,25.211,8.224c-11.157-4.029-23.211-7.101-33.604-14.042
			c-7.751-5.178-14.35-11.405-17.067-20.771c-0.232-0.8-0.509-1.59-0.639-2.413c-0.287-1.82-0.78-3.932,0.839-5.151
			c1.842-1.388,3.459,0.363,4.845,1.38c9.431,6.921,19.29,13.073,30.224,17.356c0.872,0.37,1.759,0.722,2.589,1.197
			c-0.309-0.6-1.054-0.479-1.504-0.886c-14.638-7.593-28.92-15.735-40.005-28.234c-5.814-6.557-9.674-14.253-10.438-23.218
			c0.235-3.022-0.844-6.239,1.341-8.963c1.667,0,3.333,0,5,0c0.54,0.488,1.245,0.699,1.841,1.096
			c6.529,7.95,12.685,16.178,19.931,23.57c17.034,17.378,36.712,31.118,57.672,43.197c0.576,0.331,1.176,0.62,1.755,0.948
			c7.028,3.982,6.749,3.854,3.432,11.051c-1.773,3.849-5.055,7.021-5.731,12.848c7.14-4.247,13.895-2.85,20.656-1.199
			c0.505,0.144,0.931,0.408,1.294,0.783c7.332,6.181,9.337,13.848,6.319,22.872c-0.815,2.436,0.073,3.441,2.518,3.446
			c8.159,0.016,16.318,0.066,24.478-0.028c1.922-0.021,3.247-0.84,3.35-2.897c0.231-4.658,0.224-9.323,0.019-13.98
			c-0.125-2.855-1.873-2.697-3.829-1.713c-3.138,1.58-5.987,3.605-8.731,5.782c-1.957,1.552-3.817,3.243-5.985,4.496
			c-1.519,0.878-3.155,2.725-4.896,1.421c-1.752-1.312-0.586-3.396,0.027-5.074c1.719-4.706,3.178-9.467,3.752-14.471
			c0.23-2.01,0.235-3.982-0.283-5.946c-1.538-5.816-4.626-10.271-10.614-12.249c-1.39-0.459-2.927-0.742-4.058-2.512
			c1.205-2.093,3.569-2.468,5.626-3.217c16.646-6.063,32.592-13.479,47.519-24.505c-4.771-0.664-8.962-0.258-13.115-0.375
			c-3.477-0.098-5.222-1.693-5.251-5.198c-0.096-11.489-0.099-22.979,0.006-34.469C319.21,149.318,319.519,148.031,320.5,147z"/>
		<path fill-rule="evenodd" clip-rule="evenodd" fill="#EB7F27" d="M280.623,239.085c-0.556,1.363-1.525,0.974-2.444,0.531
			c-5.35-2.579-10.591-2.171-15.823,0.407c-0.913,0.45-1.924,1.827-3.038,0.555c-0.842-0.963-0.499-2.356,0.005-3.335
			c2.397-4.655,4.582-9.485,7.569-13.743c1.791-2.552,1.556-3.196-0.979-4.59c-19.993-10.998-39.106-23.312-55.874-38.925
			c-10.339-9.627-20.129-19.773-27.479-31.99c1.892-0.943,3.913-0.447,5.865-0.453c16.073-0.047,32.146-0.013,48.218-0.049
			c1.62-0.004,3.32,0.445,4.858-0.493c1.333,0,2.667,0,4,0c7.203,1.017,14.25,2.08,20.573,6.412
			c16.874,11.56,16.514,37.175-0.898,47.973c-1.559,0.967-3.204,1.763-5.774,3.008c7.879,1.486,12.529,7.39,19.061,10.04
			c0.641,0.26,1.349,0.691,1.203,1.393c-0.941,4.515,2.107,8.33,2.148,12.663c0.049,1.9,0.049,3.798,0.055,5.697
			C281.863,235.925,281.809,237.649,280.623,239.085z"/>
		<path fill-rule="evenodd" clip-rule="evenodd" d="M320.5,147c0.056,12.477,0.307,24.957,0.057,37.427
			c-0.083,4.097,1.233,5.053,5.013,4.816c4.929-0.309,9.892-0.076,16.273-0.076c-17.917,13.608-36.713,22.512-57.492,29.354
			c9.702,1.786,15.394,6.921,16.364,16.241c0.869,8.338-2.694,15.845-5.693,24.361c9.266-4.883,15.268-13.48,25.645-15.379
			c0,7.136-0.061,13.943,0.038,20.749c0.028,1.96-0.619,2.555-2.555,2.542c-10.762-0.075-21.523-0.036-32.533-0.036
			c1.03-3.382,2.472-6.167,3.02-9.298c1.063-6.076-0.006-11.267-5.318-14.957c-1.389-0.964-1.966-2.144-1.971-3.732
			c-0.639-1.727-0.202-3.521-0.331-5.281c0-2.151-0.001-4.302-0.001-6.455c-2.211-21.032-0.688-42.127-1.125-63.188
			c-0.076-3.654-0.048-7.313,0.013-10.97c0.036-2.161,0.008-4.355,1.598-6.118C294.5,147,307.5,147,320.5,147z"/>
		<path fill-rule="evenodd" clip-rule="evenodd" d="M394.5,267c-11.482,0-22.967-0.127-34.445,0.083
			c-3.161,0.058-3.871-0.869-3.796-3.885c0.211-8.481,0.225-16.977-0.011-25.457c-0.079-2.844,1.023-3.969,3.396-5.133
			c7.542-3.702,12.273-9.383,11.845-18.73c-8.1,3.396-15.374,7.821-23.536,10.031c-1.836,0.497-3.92,0.073-7.426,0.073
			c7.205-3.074,13.151-5.359,18.878-8.104c14.92-7.151,24.517-18.292,26.066-36.364c-10.869,9.156-20.615,18.47-32.636,24.694
			c-1.223,0.446-1.495-0.152-1.34-1.22c6.984-5.097,14.011-10.103,20.186-16.249c11.059-11.009,18.243-23.638,17.819-39.74
			c4.23-0.897,5.141,0.766,5.118,5.001C394.416,190.333,394.5,228.667,394.5,267z"/>
		<path fill-rule="evenodd" clip-rule="evenodd" fill="#FEFEFE" d="M281.5,147c-0.053,27.001-0.104,54.003-0.157,81.004
			c-0.311,0.434-0.559,0.399-0.742-0.101c-0.129-2.358-0.734-4.631-1.874-6.655c-1.15-2.044-0.648-3.793,0.475-5.776
			c-1.589-0.624-3.27,1.01-4.843-0.868c-4.415-5.271-10.661-7.729-17.017-9.963c0.877-1.688,2.67-1.876,4.067-2.565
			c10.835-5.346,16.117-14.24,15.823-26.077c-0.299-12.032-6.792-20.252-17.757-24.762c-4.481-1.844-9.307-2.85-13.976-4.236
			C257.5,147,269.5,147,281.5,147z"/>
		<path fill-rule="evenodd" clip-rule="evenodd" fill="#010101" d="M205.401,288.776c0.101-2.418-0.877-4.415-2.616-5.975
			c-0.959-0.86-1.621-1.688-1.121-2.964c0.578-1.474,1.951-0.926,3.017-0.991c7.697-0.476,8.166-0.318,9.857,7.021
			c1.104,4.795,3.173,9.18,4.854,13.73c0.585,1.583,0.808,3.84,3.181,3.784c2.945-0.069,1.49-2.743,2.18-4.167
			c0.215-0.442,0.484-0.858,0.729-1.286c0.699-0.896,1.407-1.776,2.749-1.495c0.953,0.198,1.516,0.891,2.044,1.625
			c1.777,1.396,1.85,1.452,0.646,3.014c-0.843,1.095-0.68,2.407-0.15,3.163c1.295,1.846,2.868-0.67,4.366-0.067
			c1.76,1.628,1.581,3.043-0.463,4.255c-2.63,0.127-5.263,0.032-7.894,0.061c-1.702,0-3.406,0.002-5.109,0
			c-2.717,0.264-5.504-0.569-8.17,0.516c-1,0-2,0-3,0c-1.621-0.939-2.083-2.325-1.471-4.051c0.564-1.59,0.44-3.115-0.256-4.62
			c-0.437-1.037-0.877-2.072-1.252-3.134c-0.469-1.514-1.181-2.928-1.813-4.376C205.3,291.495,204.619,290.188,205.401,288.776z"/>
		<path fill-rule="evenodd" clip-rule="evenodd" d="M380.5,147c-5.9,11.152-14.505,20.13-24,29.953c0-10.624,0-20.289,0-29.953
			C364.5,147,372.5,147,380.5,147z"/>
		<path fill-rule="evenodd" clip-rule="evenodd" fill="#020202" d="M329.586,290.23c-0.265-2.92-0.947-5.553-3.213-7.768
			c-2.037-1.993-1.43-3.359,1.577-3.659c7.955-0.794,9.736,1.177,11.668,10.762c0.905,4.49,3.221,8.711,5.051,12.988
			c0.435,1.016,1.446,1.863,2.839,1.178c1.685,0.026,3.093,0.49,3.643,2.31c0.376,2.949-2.41,1.999-3.65,2.959c-0.333,0-0.667,0-1,0
			c-3-0.804-6-0.804-9,0c-1.333,0-2.667,0-4,0c-1.103-1.12-1.934-2.688-0.971-3.896c1.603-2.014,0.349-3.649-0.054-5.439
			c-0.201-0.826-0.38-1.663-0.698-2.459c-0.652-1.517-1.161-3.092-1.859-4.593C329.583,291.85,329.151,291.098,329.586,290.23z"/>
		<path fill-rule="evenodd" clip-rule="evenodd" fill="#030303" d="M170.5,309c-0.919-2.021-2.564-4.091,0.682-5.684
			c0.375-0.184,0.507-1.22,0.466-1.841c-0.423-6.333,2.292-13.025-2.122-18.916c-0.166-0.222-0.199-0.656-0.113-0.936
			c1.332-4.34,5.035-2.058,7.636-2.47c1.424-0.226,4.668-1.678,4.219,2.546c-0.436,4.103-0.493,8.26-0.468,12.392
			c0.021,3.646-1.476,7.514,1.608,10.834c0.659,0.709-0.035,2.239-0.867,3.169c-2.929,1.147-6.132-0.447-9.04,0.905
			C171.833,309,171.167,309,170.5,309z"/>
		<path fill-rule="evenodd" clip-rule="evenodd" fill="#020202" d="M259.555,296.126c0.067,0.482-0.027,1.084,0.227,1.429
			c3.115,4.229,4.174,8.189-1.281,11.445c-1,0-2,0-3,0c-1.008-0.704-2.006-1.412-1.18-2.869c0.685-0.646,1.814-0.799,2.271-2.084
			c-0.947,0.712-1.354,1.645-2.237,2.048c-4.225-1.613-4.642-5.992-6.69-9.188c-0.552-1.198-1.101-2.401-1.946-3.437
			c-1.636-2.269-4.32-3.944-4.131-7.249c-0.347-0.769-0.693-1.537-1.04-2.306c-0.554-2.479,1.844-2.618,2.979-3.758
			c4.076-1.096,6.898-0.146,8.524,4.214c1.016,2.723,3.009,5.081,4.563,7.604c0.951,0.471,1.889,0.96,2.552,1.835
			C259.629,294.524,260.199,295.226,259.555,296.126z"/>
		<path fill-rule="evenodd" clip-rule="evenodd" fill="#040404" d="M347.604,302.857c0.172-6.132,0.344-12.265,0.515-18.396
			c0.009-0.307,0.125-0.663,0.011-0.914c-2.08-4.564-2.086-4.563,3.246-4.483c0.831,0.013,1.662,0.064,2.493,0.081
			c5.168,0.105,4.523-0.053,3.395,4.591c-1.036,4.261-0.496,8.909-0.618,13.388c-0.06,2.163,0.082,4.34-0.097,6.491
			c-0.243,2.935,1.52,1.798,2.883,1.568c1.623,3.269-1.713,2.73-2.931,3.817c-1.333,0-2.667,0-4,0
			c-0.693-0.555-1.528-1.027-1.232-2.147C352.485,303.287,348.421,304.56,347.604,302.857z"/>
		<path fill-rule="evenodd" clip-rule="evenodd" fill="#040404" d="M374.447,303.434c-0.308-0.168-0.616-0.337-0.924-0.505
			c-1.174-2.296-0.202-4.627-0.117-6.944c-0.121-3.297-0.268-6.593-0.345-9.891c-0.019-0.811,0.482-1.726,0.244-2.422
			c-1.621-4.752-1.664-4.737,3.574-4.634c0.329,0.006,0.659,0.038,0.989,0.047c5.57,0.152,4.965,0.079,4.375,5.045
			c-0.791,6.665-0.626,13.454-0.658,20.19c-0.008,1.707,1.469,1.313,2.594,0.854c0.908,2.298,0.908,2.298-2.68,3.825
			c-1.667,0-3.333,0-5,0c-0.527-0.494-0.702-1.117-0.678-1.814C376.155,305.646,376.128,304.239,374.447,303.434z"/>
		<path fill-rule="evenodd" clip-rule="evenodd" fill="#030303" d="M284.378,302.2c2.101,2.576,3.834,5.104-0.878,6.8
			c-0.667,0-1.333,0-2,0c-2.223-1.326-4.829,0.239-7.071-0.94c-0.89-0.405-1.415-1.605-0.988-1.981
			c4.31-3.795,1.584-8.704,2.168-13.055c0.305-2.276,0.017-4.628,0.081-6.942c0.186-6.566,0.826-7.051,7.828-6.09
			c1.493,1.572,0.538,3.359,0.546,5.104C284.091,290.797,283.533,296.515,284.378,302.2z"/>
		<path fill-rule="evenodd" clip-rule="evenodd" fill="#F6F6F6" d="M295.5,309c0.005-0.793,0.125-1.535,0.873-2.004
			c7.034-1.246,6.996-1.245,6.798-8.048c-0.135-4.645-0.083-9.293-0.017-13.939c0.025-1.794-0.163-3.709,1.488-5.049
			c0.71-0.278,1.419-0.558,2.129-0.837c1.137,2.231,3.611,3.415,4.549,5.801c1.424,3.624-2.722,6.524-1.933,9.215
			c0.842,2.866,3.411,5.153,1.366,8.474c-0.171,0.278-0.273,0.601-0.42,0.898c-0.365,0.81-1.129,1.282-1.624,1.932
			c0.078,0.961,0.569,0.073,0.852,0.145c0.392-0.132,0.772-0.178,1.173-0.159c0.991,0.154,2.017,0.456,2.146-1.103
			c0.399-4.776,2.239-4.116,4.653-1.214c0.024,0.386,0.049,0.771,0.073,1.155c1.063,1.405,2.507,2.658,1.893,4.733
			C311.5,309,303.5,309,295.5,309z"/>
		<path fill-rule="evenodd" clip-rule="evenodd" fill="#060606" d="M319.5,309c-0.874-1.48-2.428-2.689-1.893-4.733
			c2.688-0.035,4.102-1.635,4.94-3.982c1.149-3.221,2.486-6.384,3.452-9.658c0.996-3.378,2.26-1.52,3.586-0.396
			c0.305,0.591,0.609,1.182,0.914,1.772c0.472,1.793-1.184,4.549,2.262,4.996c0.243,0.675,0.487,1.35,0.73,2.025
			c-0.633,1.271-1.027,2.683-2.674,3.169c-1.162,0.344-2.134,1.192-1.752,2.521c0.948,3.296-1.403,3.675-3.566,4.286
			c-0.333,0-0.667,0-1,0c-0.667-0.629-1.333-0.629-2,0C321.5,309,320.5,309,319.5,309z"/>
		<path fill-rule="evenodd" clip-rule="evenodd" fill="#F4BE92" d="M168.601,266.875c-0.367,0.042-0.734,0.083-1.101,0.125
			c0-38.674-0.014-77.347,0.061-116.021c0.002-1.291-1.119-3.087,0.939-3.979c0.435,0.512,0.781,1.076,1.046,1.692
			c0.628,1.761,0.56,3.6,0.562,5.422c0.025,35.212,0.025,70.423-0.01,105.634C170.096,262.2,170.445,264.784,168.601,266.875z"/>
		<path fill-rule="evenodd" clip-rule="evenodd" fill="#060606" d="M195.5,309c-1.655-2.262-3.019-4.277,1.063-5.687
			c2.185-0.755,1.988-3.55,3.116-5.281c2.641-0.16,3.647,1.649,4.466,3.691c-0.813,2.207,4.194,4.754-0.382,6.752
			c-2.079,0.288-4.253-0.576-6.263,0.524C196.833,309,196.167,309,195.5,309z"/>
		<path fill-rule="evenodd" clip-rule="evenodd" fill="#0C0C0C" d="M385.394,304.979c2.594-1.412,5.626-2.129,5.652-6.238
			c0.015-2.374,2.258-0.494,3.454-0.74c0,3,0,6,0,9c-1.339,2.65-4.235,0.628-6,2c-0.667,0-1.333,0-2,0
			C384.743,308.042,384.62,306.633,385.394,304.979z"/>
		<path fill-rule="evenodd" clip-rule="evenodd" fill="#151515" d="M360.812,304.132c2.7-0.281,4.786-1.175,4.88-4.416
			c0.03-1.064,0.028-2.463,1.881-2.105c1.633,0.315,1.782,1.283,1.875,2.812c0.277,4.54-0.543,8.081-5.947,8.578
			c-0.667,0-1.333,0-2,0C359.387,307.644,359.601,305.958,360.812,304.132z"/>
		<path fill-rule="evenodd" clip-rule="evenodd" fill="#F09F5D" d="M241.5,147c-1.458,1.669-3.417,0.962-5.151,0.967
			c-17.93,0.051-35.859,0.029-53.79,0.028c-0.353-0.332-0.706-0.663-1.059-0.995C201.5,147,221.5,147,241.5,147z"/>
		<path fill-rule="evenodd" clip-rule="evenodd" fill="#EEEEEE" d="M325.5,309c1.017-1.43,5.497-1.18,2.049-4.813
			c-1.532-1.614,0.519-2.843,1.799-2.723c2.203,0.208,2.948-1.341,4.145-2.439c2.679,3.323-1.099,6.651,0.008,9.976
			C330.833,309,328.167,309,325.5,309z"/>
		<path fill-rule="evenodd" clip-rule="evenodd" fill="#EFEFEF" d="M204.411,307.885c2.449-2.381-2.466-3.626-0.905-5.87
			c1.593-1.851,3.521-2.776,6.003-2.183c1.062,1.73,2.46,3.276,0.176,5.323c-1.425,1.276,0.369,2.577,0.815,3.845c-2,0-4,0-6,0
			c-0.345-0.222-0.473-0.461-0.385-0.718C204.207,308.018,204.305,307.885,204.411,307.885z"/>
		<path fill-rule="evenodd" clip-rule="evenodd" fill="#EEEEEE" d="M248.323,296.08c1.974,3.38,3.492,7.044,6.221,9.951
			l-0.088-0.097c0.349,1.021,0.696,2.044,1.044,3.065c-2,0-4,0-6,0c-0.331-0.364-0.628-0.754-0.902-1.165
			c-0.709-1.864-1.777-3.589-2.215-5.567C246.503,300.04,245.175,297.354,248.323,296.08z"/>
		<path fill-rule="evenodd" clip-rule="evenodd" fill="#313131" d="M376.496,307.024c0.002,0.658,0.003,1.317,0.004,1.976
			c-1.667,0-3.333,0-5,0c-1.26-3.032-0.729-5.124,2.926-5.577C375.767,304.25,377.026,305.122,376.496,307.024z"/>
		<path fill-rule="evenodd" clip-rule="evenodd" fill="#F09E5D" d="M168.596,148.079c-0.032-0.359-0.064-0.72-0.096-1.079
			c2.667,0,5.333,0,8,0c-0.047,3.336-0.095,6.673-0.143,10.009c-1.298,0.033-1.896-1.003-1.827-1.892
			C174.874,150.73,172.036,149.187,168.596,148.079z"/>
		<path fill-rule="evenodd" clip-rule="evenodd" fill="#848484" d="M249.193,307.77c0.102,0.41,0.204,0.82,0.307,1.23c-4,0-8,0-12,0
			c-0.309-0.623-0.178-1.134,0.393-1.533C241.693,306.251,245.475,305.845,249.193,307.77z"/>
		<path fill-rule="evenodd" clip-rule="evenodd" fill="#EEEEEE" d="M360.812,304.132c-0.888,1.78-0.492,3.38,0.688,4.868
			c-1.667,0-3.333,0-5,0c0.555-1.597,3.896-1.053,2.931-3.817C359.891,304.832,360.352,304.482,360.812,304.132z"/>
		<path fill-rule="evenodd" clip-rule="evenodd" fill="#E4E4E4" d="M237.654,307.856c-0.052,0.381-0.103,0.763-0.154,1.144
			c-1,0-2,0-3,0c-0.333-0.202-0.438-0.396-0.319-0.582c0.117-0.182,0.233-0.272,0.351-0.272c1.602-1.112,1.014-2.559,0.604-3.977
			c0.854,0.311,1.709,0.62,2.563,0.931C238.373,306.03,238.362,306.949,237.654,307.856z"/>
		<path fill-rule="evenodd" clip-rule="evenodd" fill="#DADADA" d="M385.394,304.979c-0.289,1.521,0.425,2.767,1.106,4.021
			c-1.667,0-3.333,0-5,0c0.432-1.598,4.082-0.942,2.68-3.825C384.584,305.109,384.989,305.044,385.394,304.979z"/>
		<path fill-rule="evenodd" clip-rule="evenodd" fill="#BCBCBC" d="M172.5,309c2.828-2.149,6.04-0.476,9.04-0.905
			c0.079,0.306,0.065,0.607-0.04,0.905C178.5,309,175.5,309,172.5,309z"/>
		<path fill-rule="evenodd" clip-rule="evenodd" fill="#FAFAFA" d="M337.5,309c3-1.42,6-2.431,9,0C343.5,309,340.5,309,337.5,309z"
			/>
		<path fill-rule="evenodd" clip-rule="evenodd" fill="#FCFCFC" d="M213.5,309c2.498-1.734,5.251-1.311,7.997-0.944
			c0.329,0.209,0.439,0.418,0.331,0.629c-0.108,0.21-0.218,0.315-0.328,0.315C218.833,309,216.167,309,213.5,309z"/>
		<path fill-rule="evenodd" clip-rule="evenodd" fill="#BEBEBE" d="M234.531,308.146c-0.006,0.285-0.017,0.569-0.031,0.854
			c-2.667,0-5.333,0-8,0c-0.31-0.168-0.42-0.348-0.33-0.538c0.092-0.195,0.187-0.294,0.284-0.294
			C229.146,308.16,231.839,308.153,234.531,308.146z"/>
		<path fill-rule="evenodd" clip-rule="evenodd" fill="#353535" d="M351.487,307.212c0.338,0.596,0.675,1.192,1.013,1.788
			c-1.667,0-3.333,0-5,0c0.879-1.212,3.146-1.054,3.12-3.16C351.499,305.925,352.2,306.121,351.487,307.212z"/>
		<path fill-rule="evenodd" clip-rule="evenodd" fill="#F8F8F8" d="M388.5,309c1.488-2.202,4.437-0.024,6-2
			c-0.412,0.627,0.975,2.104-1.001,2.016C391.836,308.941,390.167,309,388.5,309z"/>
		<path fill-rule="evenodd" clip-rule="evenodd" fill="#A1A1A1" d="M204.411,307.885c0.029,0.372,0.06,0.743,0.089,1.115
			c-2.333,0-4.667,0-7,0C199.524,306.896,202.173,308.664,204.411,307.885z"/>
		<path fill-rule="evenodd" clip-rule="evenodd" fill="#636363" d="M274.429,308.06c2.368,0.23,4.886-0.664,7.071,0.94
			c-2.333,0-4.667,0-7,0C274.548,308.682,274.524,308.368,274.429,308.06z"/>
		<path fill-rule="evenodd" clip-rule="evenodd" fill="#F2F2F2" d="M226.454,308.168c0.033,0.276,0.049,0.554,0.046,0.832
			c-1.667,0-3.333,0-5,0c0-0.314-0.001-0.63-0.003-0.944C223.149,308.094,224.802,308.131,226.454,308.168z"/>
		<path fill-rule="evenodd" clip-rule="evenodd" fill="#AEAEAE" d="M322.5,309c0.667-1.558,1.333-0.88,2,0
			C323.833,309,323.167,309,322.5,309z"/>
		<path fill-rule="evenodd" clip-rule="evenodd" fill="#EB7F27" d="M168.596,148.079c5.107-1.03,7.794,0.571,6.886,6.233
			c-0.154,0.96,0.079,1.962,0.876,2.696c2.419,15.024,12.008,25.005,23.615,33.564c8.404,6.197,17.65,11.058,26.455,16.618
			c0.126,0.811,0.067,1.407-0.984,0.844c-9.495-2.036-17.409-7.273-25.292-12.548c-3.434-2.297-6.763-4.748-10.852-7.633
			c0.128,7.896,2.988,13.82,7.471,19.06c6.812,7.962,15.779,12.627,25.421,16.145c6.244,2.278,12.564,4.348,18.836,6.55
			c1.646,0.578,3.651,0.718,4.412,3.45c-12.207-1.601-22.995-6.838-34.975-10.644c1.14,4.27,3.637,6.9,6.538,9.234
			c5.304,4.266,11.668,6.291,17.981,8.411c9.141,3.068,18.432,5.701,27.325,9.481c3.371,1.434,6.613,3.042,9.267,6.063
			c-9.122,8.099-20.097,10.885-31.511,11.103c-23.814,0.456-47.643,0.157-71.465,0.168
			C168.599,227.276,168.597,187.678,168.596,148.079z"/>
		<path fill-rule="evenodd" clip-rule="evenodd" fill="#020202" d="M304.643,279.96c0.675,8.188-0.705,16.41,0.559,24.615
			c0.454,2.953-5.204,4.445-8.828,2.421c0.125-0.61,0.25-1.221,0.375-1.831c1.187-0.868,0.961-1.572-0.251-2.163
			c-2.638-4.773,0.055-9.948-1.099-14.851c-0.255-1.082,0.216-2.319,0.046-3.438c-0.925-6.098-0.758-6.31,5.898-5.63
			C302.461,279.197,303.544,279.659,304.643,279.96z"/>
		<path fill-rule="evenodd" clip-rule="evenodd" fill="#040404" d="M317.534,303.111c-0.684,0.322-1.345,0.996-2.034-0.053
			c-0.305-0.463,0.301-1.974-1.228-1.166c-0.634,0.336-1.065,0.826-0.688,1.527c0.753,1.398,2.134,2.878,0.369,4.266
			c-1.989,1.564-2.61-1.922-4.42-1.511c-0.596-0.715-0.638-1.461-0.131-2.24c0.139-1.28,0.056-2.57,0.938-3.717
			c1.316-1.709,0.686-3.198-1.166-3.771c-3.966-1.229-1.917-3.034-0.719-4.936c2.046-3.247,4.398-6.52-1.233-8.845
			c-1.555-0.643-0.753-2.289-0.451-3.543c4.074,0.422,8.946-1.381,11.233,4.021c0.321,0.76,0.551,1.561,0.906,2.304
			c1.659,3.47-3.479,5.989-1.807,8.695C319.114,297.396,318.18,300.102,317.534,303.111z"/>
		<path fill-rule="evenodd" clip-rule="evenodd" fill="#020202" d="M230.273,298.06c-0.59-0.283-1.181-0.567-1.771-0.851
			c-1.239-0.852-2.674-1.523-2.993-3.228c-1.913-2.702-1.038-5.816-0.928-8.674c0.088-2.282-4.331-3.763-1.337-5.786
			c1.608-1.087,4.471-0.314,6.767-0.385c5.985-0.185,5.832-0.259,3.158,5.361c-0.798,1.68-0.78,3.922-0.594,5.854
			C232.864,293.322,232.382,295.889,230.273,298.06z"/>
		<path fill-rule="evenodd" clip-rule="evenodd" fill="#050505" d="M188.714,283.648c-0.871-0.206-1.187-0.309-1.511-0.353
			c-1.583-0.213-3.379,0.137-4.499-1.348c-0.235-0.312,0.061-1.35,0.437-1.74c1.589-1.648,3.707-1.543,5.599-0.955
			c4.768,1.481,6.672,3.746,5.289,9.657c-1.4,5.986-2.2,8.242-8.43,8.12c-1.351-0.026-2.779,0.288-3.173-1.511
			c-0.318-1.453,0.056-2.535,1.71-3.027c2.356-0.702,2.918-2.811,2.699-4.794C186.646,285.998,187.576,285.118,188.714,283.648z"/>
		<path fill-rule="evenodd" clip-rule="evenodd" fill="#040404" d="M237.654,307.856c0.015-0.919,0.03-1.838,0.045-2.757
			c2.857-0.306,1.898-2.5,1.9-4.069c0.005-4.2-0.199-8.4-0.197-12.602c0.001-1.257,0.108-2.814,2.185-2.208
			c1.64,2.198,3.279,4.396,4.919,6.594c1.323,3.309-0.35,6.903,0.979,10.211c1.157,1.37,2.345,2.729,1.707,4.744
			C245.347,307.799,241.501,307.827,237.654,307.856z"/>
		<path fill-rule="evenodd" clip-rule="evenodd" fill="#0E0E0E" d="M259.555,296.126c-0.363-0.743-0.727-1.487-1.09-2.231
			c-1.238-1.552,0.166-3.546-0.86-5.133c-0.196-2.039,1.054-4.436-2.424-5.41c-1.393-0.39-0.728-2.854,0.705-3.578
			c2.856-1.442,5.756-0.477,8.538,0.579c0.898,0.341,0.522,1.409,0.244,1.674c-3.656,3.485-1.965,7.941-2.181,12.001
			C262.366,296.305,261.097,296.224,259.555,296.126z"/>
		<path fill-rule="evenodd" clip-rule="evenodd" fill="#0D0D0D" d="M209.509,299.832c-1.55,1.968-4.039,1.352-6.003,2.183
			c-0.937-1.653-2.27-2.926-3.827-3.982c0.854-2.46,1.914-4.871,2.499-7.394c0.476-2.056,1.655-2.104,3.224-1.862
			c0.625,1.309,1.408,2.576,1.079,4.134c0.008,1.742,0.267,3.36,2.063,4.229C208.865,298.037,209.187,298.935,209.509,299.832z"/>
		<path fill-rule="evenodd" clip-rule="evenodd" fill="#060606" d="M266.271,285.082c1.212-1.656-1.369-4.921,2.314-5.079
			c1.943-0.083,4.677-0.942,5.779,0.987c1.022,1.789-1.36,3.008-2.526,4.309c-0.327,0.364-0.591,0.787-0.915,1.155
			c-1.064,1.209-0.799,4.154-3.379,3.326C265.078,288.988,267.099,286.559,266.271,285.082z"/>
		<path fill-rule="evenodd" clip-rule="evenodd" fill="#090909" d="M285.516,280.009c6.841,0.102,6.835,0.102,6.175,6.266
			c-0.138,1.281,0.061,2.574-1.682,3.146c-2.377,0.779-1.598-1.443-2.292-2.215c-0.867-0.963-1.532-2.107-2.285-3.174
			C283.536,282.65,283.604,281.311,285.516,280.009z"/>
		<path fill-rule="evenodd" clip-rule="evenodd" fill="#CECECE" d="M285.516,280.009c-1.379,1.313-0.684,2.669-0.084,4.023
			c-1.822,5.971-0.15,12.145-1.054,18.168c-1.925-7.339,0.129-14.833-0.86-22.209C284.184,279.997,284.85,280.003,285.516,280.009z"
			/>
		<path fill-rule="evenodd" clip-rule="evenodd" fill="#232323" d="M243.526,280.157c-0.024,2.021-2.463,2.127-2.979,3.758
			c-1.836-0.391-3.271-2.038-2.432-3.286C239.246,278.946,241.651,280.014,243.526,280.157z"/>
		<path fill-rule="evenodd" clip-rule="evenodd" fill="#BFBFBF" d="M351.487,307.212c-0.289-0.457-0.578-0.914-0.867-1.372
			c-1.037-0.702-2.075-1.405-3.112-2.108c-0.182-0.314-0.149-0.606,0.096-0.874C353.572,303.321,353.572,303.321,351.487,307.212z"
			/>
		<path fill-rule="evenodd" clip-rule="evenodd" fill="#737373" d="M296.497,303.002c1.265,0.505,2.403-1.439,3.646-0.241
			c0.607,0.584-0.188,1.07-0.34,1.615c-0.609,2.197-1.897,1.113-3.056,0.789C296.665,304.444,296.581,303.724,296.497,303.002z"/>
		<path fill-rule="evenodd" clip-rule="evenodd" fill="#313131" d="M373.406,295.984c0.858,0.139,2.168-0.152,0.858,1.455
			c-1.299,1.596-0.235,3.685-0.741,5.489C372.328,300.634,372.55,298.314,373.406,295.984z"/>
		<path fill-rule="evenodd" clip-rule="evenodd" fill="#E2E2E2" d="M376.496,307.024c-0.688-1.196-1.378-2.392-2.068-3.595
			c-0.002-0.007,0.02,0.004,0.02,0.004c1.117-0.535,2.427-0.609,2.987,0.471C377.962,304.923,378.311,306.445,376.496,307.024z"/>
		<path fill-rule="evenodd" clip-rule="evenodd" fill="#D3D3D3" d="M225.51,293.981c0.324,1.7,3.597,0.666,2.993,3.228
			c-1.183-0.494-1.988,0.592-3.022,0.721C225.49,296.613,225.5,295.297,225.51,293.981z"/>
		<path fill-rule="evenodd" clip-rule="evenodd" fill="#262626" d="M351.495,202.989c0.446,0.406,0.893,0.813,1.34,1.22
			c-1.038,1.026-2.161,1.827-4.024,1.429C348.773,203.723,350.354,203.558,351.495,202.989z"/>
		<path fill-rule="evenodd" clip-rule="evenodd" fill="#EEEEEE" d="M257.604,288.762c0.287,1.711,0.573,3.422,0.86,5.133
			c-1.196-0.081-1.663-0.866-1.851-1.92C257.596,291.104,257.358,289.858,257.604,288.762z"/>
		<path fill-rule="evenodd" clip-rule="evenodd" fill="#ED8E42" d="M225.443,208.035c0.328-0.281,0.656-0.563,0.984-0.844
			c0.874,0.295,1.832,0.469,2.212,1.537C227.388,209.199,226.372,208.814,225.443,208.035z"/>
		<path fill-rule="evenodd" clip-rule="evenodd" fill="#F5C49D" d="M281.295,234.052c0.018,1.653,0.034,3.308,0.052,4.961
			c-0.245-0.015-0.486,0.009-0.724,0.072c0.052-1.673,0.104-3.346,0.156-5.019C280.951,234.062,281.123,234.057,281.295,234.052z"/>
		<path fill-rule="evenodd" clip-rule="evenodd" fill="#F3B786" d="M281.295,234.052c-0.173,0.002-0.346,0.006-0.517,0.015
			c-0.059-2.055-0.118-4.108-0.178-6.163c0.244,0.061,0.491,0.094,0.742,0.101C281.327,230.02,281.311,232.035,281.295,234.052z"/>
		<path fill-rule="evenodd" clip-rule="evenodd" fill="#DBDBDB" d="M208.543,297.14c-1.549-0.047-3.181,0.556-4.663-0.554
			c-0.029-1.899,2.883-1.68,2.601-3.676C208.342,293.747,208.333,295.497,208.543,297.14z"/>
		<path fill-rule="evenodd" clip-rule="evenodd" fill="#D0D0D0" d="M332.762,296.999c-1.725,0.822-3.388,0.17-5.359-0.079
			c0.636-2.075,3.367-2.618,3.098-4.917C331.254,293.668,332.008,295.334,332.762,296.999z"/>
		<path fill-rule="evenodd" clip-rule="evenodd" fill="#B8B8B8" d="M254.544,306.031c1.471-1.373-0.244-3.243,0.773-5.239
			c1.183,1.275,3.263,1.544,2.816,3.427c-0.367,1.554-2.146,1.76-3.678,1.717C254.456,305.935,254.544,306.031,254.544,306.031z"/>
		<path fill-rule="evenodd" clip-rule="evenodd" fill="#BBBBBB" d="M247.485,303.025c-0.95-3.344-1.354-6.739-0.979-10.211
			c0.605,1.089,1.211,2.178,1.817,3.266C246.817,298.247,248.065,300.747,247.485,303.025z"/>
		<path fill-rule="evenodd" clip-rule="evenodd" fill="#626262" d="M281.356,293.944c0.058,1.924-0.034,3.406-1.913,3.991
			c-0.607,0.189-1.665-0.088-1.501-0.7C278.354,295.702,279.623,294.789,281.356,293.944z"/>
		<path fill-rule="evenodd" clip-rule="evenodd" fill="#C9C9C9" d="M280.121,303.942c-1.594,0.21-1.807-0.431-1.772-1.095
			c0.022-0.451,0.341-0.889,0.527-1.332c0.491,0.374,1.176,0.649,1.427,1.146C280.629,303.305,280.321,303.935,280.121,303.942z"/>
		<path fill-rule="evenodd" clip-rule="evenodd" fill="#8F8F8F" d="M309.402,303.935c0.044,0.747,0.087,1.493,0.131,2.24
			l0.076-0.118c-0.706,0.016-1.537,2.752-2.111-0.098C307.463,304.654,308.318,304.188,309.402,303.935z"/>
		<path fill-rule="evenodd" clip-rule="evenodd" fill="#1F1F1F" d="M307.498,305.959c0.658,1.023,1.429-0.396,2.111,0.098
			c0.239,1.522-0.368,2.333-1.908,1.854C306.48,307.531,306.137,306.759,307.498,305.959z"/>
	</g>
</g>
</svg>
