<svg width="566" height="454" viewBox="-100 -350 1000 1000" enable-background="new 0 0 566 454" fill="none" xmlns="http://www.w3.org/2000/svg">
<path d="M200.83 152.395C195.906 147.569 193.398 141.612 193.398 134.703V70.4433H155.586V134.703C155.586 152.08 161.775 167.094 173.981 179.323C186.194 191.659 201.173 197.91 218.518 197.91C235.862 197.91 250.841 191.659 263.047 179.33C275.261 167.094 281.449 152.08 281.449 134.703V70.293H243.638V134.703C243.638 141.605 241.129 147.569 236.177 152.423C231.36 157.356 225.414 159.869 218.518 159.869C211.621 159.869 205.668 157.356 200.83 152.395Z" fill="#515BF4"/>
<path d="M345.446 70.293H307.484V196.549H345.446V70.293Z" fill="#515BF4"/>
<path d="M428.846 67.7868C419.291 68.1806 409.6 71.066 400.038 76.3714C389.711 82.0635 381.7 89.7173 376.233 99.1325C370.752 108.576 367.643 120.075 367 133.328C367.007 153.74 373.896 170.187 387.467 182.222C399.802 193.005 415.067 198.482 432.826 198.482C450.592 198.382 465.864 192.905 478.206 182.208C491.777 170.272 498.659 153.97 498.659 133.743V9.57031H460.326V75.2402L457.689 74.0015C448.098 69.4909 438.393 67.393 428.846 67.7868ZM452.357 152.831C446.94 158.151 440.38 160.836 432.826 160.836C425.272 160.836 418.712 158.151 413.323 152.853C408.014 147.426 405.334 140.853 405.334 133.285C405.334 125.724 408.014 119.151 413.295 113.746C418.712 108.426 425.279 105.741 432.826 105.741C440.373 105.741 446.933 108.426 452.329 113.717C457.639 119.151 460.319 125.724 460.319 133.285C460.326 140.853 457.646 147.426 452.357 152.831Z" fill="#515BF4"/>
<path d="M535.884 195.192C548.238 195.192 558.252 185.158 558.252 172.781C558.252 160.405 548.238 150.371 535.884 150.371C523.53 150.371 513.516 160.405 513.516 172.781C513.516 185.158 523.53 195.192 535.884 195.192Z" fill="#515BF4"/>
<path d="M97.3108 146.823C92.6228 155.451 83.5182 161.322 73.02 161.322C57.7266 161.322 45.3203 148.9 45.3203 133.57C45.3203 118.248 57.7194 105.819 73.02 105.819C83.9398 105.819 93.3303 112.17 97.8325 121.37H137.11C131.407 91.0911 104.9 68.1797 73.0271 68.1797C36.9804 68.1797 7.76562 97.4562 7.76562 133.563C7.76562 169.677 36.9875 198.954 73.0271 198.954C104.536 198.954 130.792 176.572 136.909 146.823H97.3108Z" fill="#515BF4"/>
</svg>
