<svg width="512" height="512" viewBox="0 0 512 512" fill="none" xmlns="http://www.w3.org/2000/svg">
<rect x="46.1213" y="256.132" width="297" height="297" transform="rotate(-45 46.1213 256.132)" stroke="white" stroke-width="3"/>
<rect x="46.1213" y="234.132" width="297" height="297" transform="rotate(-45 46.1213 234.132)" stroke="white" stroke-width="3"/>
<line x1="115" y1="245" x2="396" y2="245" stroke="white" stroke-width="4"/>
<path d="M256.656 146.6C245.733 146.6 237.2 150.355 231.056 157.864C224.912 165.288 221.84 174.419 221.84 185.256C221.84 197.971 225.04 208.296 231.44 216.232C237.84 224.168 246.843 228.136 258.448 228.136C266.384 228.136 272.315 226.6 276.24 223.528C278.629 221.651 279.824 219.219 279.824 216.232V206.248C279.824 202.579 278.885 200.232 277.008 199.208C275.131 198.099 270.651 197.544 263.568 197.544L262.416 191.912C267.28 192.253 273.467 192.424 280.976 192.424C288.571 192.424 294.885 192.253 299.92 191.912L300.944 197.544C296.763 197.544 294.117 198.099 293.008 199.208C291.899 200.232 291.344 202.579 291.344 206.248V216.36C291.344 222.931 291.088 226.216 290.576 226.216C280.763 231.763 269.456 234.536 256.656 234.536C241.637 234.536 229.819 230.397 221.2 222.12C212.667 213.757 208.4 202.493 208.4 188.328C208.4 174.077 213.136 162.557 222.608 153.768C232.08 144.979 244.027 140.584 258.448 140.584C263.568 140.584 269.712 141.352 276.88 142.888C284.048 144.339 288.144 145.107 289.168 145.192C289.765 146.472 290.064 149.331 290.064 153.768C290.064 158.205 289.851 162.771 289.424 167.464L285.84 167.08C285.157 162.131 283.749 158.291 281.616 155.56C279.483 152.829 276.24 150.653 271.888 149.032C267.621 147.411 262.544 146.6 256.656 146.6Z" fill="white"/>
<path d="M229.032 265.632L242.344 265.12L243.624 270.624H242.856C239.016 271.051 236.029 272.203 233.896 274.08C231.763 275.872 229.971 278.816 228.52 282.912L201.384 356H195.24L167.592 280.864C165.629 276.683 163.965 273.952 162.6 272.672C161.235 271.392 159.016 270.752 155.944 270.752L154.536 265.12C161.192 265.547 167.165 265.76 172.456 265.76C177.832 265.76 183.037 265.547 188.072 265.12L189.224 270.624H188.712C181.971 270.709 178.6 271.904 178.6 274.208C178.6 275.061 178.899 276.128 179.496 277.408L202.408 337.44L223.4 279.584C223.656 278.56 223.784 277.664 223.784 276.896C223.784 273.141 220.2 271.051 213.032 270.624L211.496 265.12L229.032 265.632Z" fill="white"/>
<path d="M258.84 265.736L274.2 266.12L293.784 265.608C303.171 265.608 310.851 267.613 316.824 271.624C322.797 275.635 325.784 281.779 325.784 290.056C325.784 302.259 319.597 310.493 307.224 314.76C309.016 317.149 311.832 320.989 315.672 326.28C323.949 338.056 329.539 345.309 332.44 348.04C335.427 350.771 338.84 352.307 342.68 352.648L344.344 357.128L334.872 356.744L322.072 357C320.451 354.781 316.141 348.381 309.144 337.8C302.232 327.219 297.581 320.477 295.192 317.576C294.851 317.235 294.381 317.064 293.784 317.064H281.496V346.76C281.496 348.467 282.264 349.661 283.8 350.344C285.336 350.941 288.28 351.411 292.632 351.752L293.784 357.384C282.776 357.128 277.144 357 276.888 357L260.504 357.384L259.48 351.752C264.259 351.24 267.16 350.771 268.184 350.344C269.293 349.832 269.848 348.637 269.848 346.76V276.36C269.848 274.653 269.208 273.501 267.928 272.904C266.733 272.221 264.088 271.709 259.992 271.368L258.84 265.736ZM281.496 273.8V310.92C283.459 311.176 286.275 311.304 289.944 311.304C305.731 311.304 313.624 304.264 313.624 290.184C313.624 284.04 311.619 279.432 307.608 276.36C303.597 273.203 298.392 271.624 291.992 271.624C286.445 271.624 283.288 271.88 282.52 272.392C281.837 272.819 281.496 273.288 281.496 273.8Z" fill="white"/>
</svg>
