<?xml version="1.0" encoding="utf-8"?>
<!-- Generator: Adobe Illustrator 16.0.0, SVG Export Plug-In . SVG Version: 6.00 Build 0)  -->
<!DOCTYPE svg PUBLIC "-//W3C//DTD SVG 1.1//EN" "http://www.w3.org/Graphics/SVG/1.1/DTD/svg11.dtd">
<svg version="1.1" id="Capa_1" xmlns="http://www.w3.org/2000/svg" xmlns:xlink="http://www.w3.org/1999/xlink" x="0px" y="0px"
	 width="560px" height="454px" viewBox="0 0 560 454" enable-background="new 0 0 560 454" xml:space="preserve">
<g id="Agency-2">
	<g id="Agency-1" transform="translate(-172.000000, -1602.000000)">
		<g id="_x31_" transform="translate(172.000000, 1602.000000)">
			<rect id="Rectangle-Copy-16" fill="#FFFFFF" width="560" height="454"/>
		</g>
	</g>
</g>
<g>
	<g>
		<path fill-rule="evenodd" clip-rule="evenodd" fill="#FEFEFE" d="M385.5,190.5c0,30.833-0.054,61.667,0.085,92.5
			c0.014,2.983-0.603,3.587-3.585,3.582c-67.333-0.106-134.667-0.106-202,0c-2.982,0.005-3.595-0.599-3.584-3.582
			c0.128-37,0.128-74,0-111c-0.011-2.983,0.602-3.587,3.584-3.582c67.333,0.106,134.667,0.106,202,0
			c2.982-0.005,3.837,0.573,3.578,3.589c-0.325,3.806-0.078,7.66-0.078,11.493c-1.08,0.716-2.029,0.054-3.013-0.271
			c-0.766-0.317-1.54-0.613-2.333-0.86c-0.789-0.236-1.58-0.464-2.398-0.575c-1.5-0.165-2.888,0.018-3.957,1.234
			c-2.045,2.537-2.868,5.079-0.109,7.669c0.504,0.424,0.997,0.86,1.503,1.279c1.379,1.273,3.024,1.45,4.781,1.152
			c1.907-0.27,2.815-2.015,4.298-2.908C384.736,190.07,385.146,190.165,385.5,190.5z"/>
		<path fill-rule="evenodd" clip-rule="evenodd" fill="#3F3F41" d="M385.5,190.5l-0.372,0.267l-0.429-0.16
			c-0.454,0.37-0.914,0.377-1.38,0.021c-0.972-1.808-0.167-3.483,0.381-5.181c0.405-0.683,0.869-1.261,1.8-0.946
			C385.5,186.5,385.5,188.5,385.5,190.5z"/>
		<path fill-rule="evenodd" clip-rule="evenodd" fill="#59595B" d="M385.5,184.5c-0.369,0.391-0.737,0.781-1.105,1.172
			c-1.927-0.274-2.375-1.434-1.887-3.152c1.412-0.938,2.045,0.501,2.992,0.98C385.5,183.833,385.5,184.167,385.5,184.5z"/>
		<path fill-rule="evenodd" clip-rule="evenodd" fill="#00ADEE" d="M281.596,277.08c-26.989,0-53.979-0.069-80.967,0.079
			c-3.838,0.021-5.164-0.895-5.072-4.964c0.277-12.322,0.195-24.655,0.034-36.981c-0.04-3.094,0.94-3.934,3.966-3.929
			c54.812,0.078,109.623,0.074,164.434,0.007c2.756-0.003,3.76,0.696,3.728,3.606c-0.141,12.827-0.212,25.659,0.03,38.482
			c0.075,3.964-2.047,3.722-4.686,3.719C335.907,277.068,308.751,277.08,281.596,277.08z"/>
		<path fill-rule="evenodd" clip-rule="evenodd" fill="#3B3B3D" d="M200.483,227.465c-3.468,0.809-5.009,0-4.923-4.116
			c0.27-12.986,0.066-25.981,0.147-38.973c0.009-1.386-1.079-3.602,1.701-3.85c2.185-0.195,4.146-0.266,5.088,2.55
			c1.575,4.716,3.525,9.306,5.587,14.647c2.007-5.075,3.995-9.547,5.521-14.17c0.946-2.868,2.722-3.352,5.257-3.053
			c3.133,0.368,1.727,2.796,1.74,4.258c0.116,12.657-0.102,25.32,0.162,37.973c0.088,4.21-1.045,5.872-5.253,4.76
			c-1.096-8.768-0.152-17.575-0.566-26.352c-0.056-1.196,1.343-3.33-1.408-3.604c-1.708,4.039-3.416,8.078-5.493,12.992
			c-2.09-5.279-3.819-9.649-5.549-14.021c-2.78,0.04-1.41,2.215-1.431,3.274c-0.148,7.612-0.047,15.229-0.106,22.844
			C200.945,224.237,201.444,225.934,200.483,227.465z"/>
		<path fill-rule="evenodd" clip-rule="evenodd" fill="#3B3B3D" d="M253.08,204.324c-0.184,5.496-0.371,10.983-2.456,16.191
			c-1.865,4.657-4.781,7.98-10.236,8.098c-5.473,0.116-8.881-3.008-10.464-7.725c-3.76-11.203-3.853-22.568,0.148-33.758
			c1.638-4.58,5.009-7.426,10.164-7.455c5.214-0.029,8.264,3.087,10.166,7.489C252.765,192.63,252.896,198.489,253.08,204.324z"/>
		<path fill-rule="evenodd" clip-rule="evenodd" fill="#3A3A3C" d="M259.5,204.028c0-6.811,0.082-13.623-0.046-20.433
			c-0.043-2.294,0.534-3.059,2.998-3.17c12.227-0.551,17.396,3.364,19.443,15.529c1.253,7.448,1.14,14.93-1.461,22.126
			c-2.8,7.748-11.995,12.066-19.567,9.578c-1.97-0.647-1.323-2.051-1.334-3.198C259.466,217.65,259.5,210.84,259.5,204.028z"/>
		<path fill-rule="evenodd" clip-rule="evenodd" fill="#3B3B3D" d="M302.091,186.486c-2.479-0.761-5.063-2.361-7.333,0.264
			c-2.097,2.426-1.08,5.13-0.06,7.539c2.265,5.342,4.842,10.551,7.213,15.85c1.304,2.913,2.03,5.972,1.692,9.207
			c-0.392,3.76-2.196,6.563-5.628,8.229c-3.058,1.484-6.24,1.493-9.066-0.259c-2.492-1.545-0.808-4.234-1.26-6.76
			c1.218,0.589,2.068,1.074,2.973,1.424c4.634,1.79,7.853-0.635,6.841-5.489c-0.599-2.871-1.96-5.627-3.256-8.301
			c-2.389-4.927-5.15-9.703-6.377-15.093c-1.495-6.568,1.568-12.06,7.224-13.314C300.534,178.565,302.824,180.728,302.091,186.486z"
			/>
		<path fill-rule="evenodd" clip-rule="evenodd" fill="#3C3C3E" d="M315.329,206.797c0-5.482-0.134-10.97,0.055-16.446
			c0.098-2.841-0.4-4.492-3.727-4.04c-2.29,0.312-4.154,0.198-4.094-3.181c0.062-3.446,2.271-2.584,4.069-2.611
			c4.485-0.069,8.972-0.044,13.458-0.013c1.711,0.013,3.694-0.621,3.655,2.469c-0.032,2.551-0.742,3.828-3.386,3.353
			c-3.961-0.712-4.11,1.549-4.072,4.595c0.136,10.964,0.003,21.931,0.092,32.896c0.021,2.492-0.196,3.98-3.374,3.95
			c-3.412-0.032-2.646-2.185-2.661-4.023C315.302,218.096,315.329,212.446,315.329,206.797z"/>
		<path fill-rule="evenodd" clip-rule="evenodd" fill="#3D3D3F" d="M349.656,203.692c0-6.644,0.118-13.291-0.058-19.93
			c-0.071-2.687,0.89-3.305,3.42-3.355c2.918-0.058,2.668,1.622,2.664,3.505c-0.02,11.128,0.149,22.26-0.098,33.382
			c-0.083,3.718,0.911,5.229,4.695,4.703c1.628-0.226,3.315-0.016,4.977-0.014c2.266,0.002,2.041,1.614,2.102,3.13
			c0.061,1.537-0.273,2.572-2.106,2.558c-4.483-0.036-8.969-0.031-13.453-0.008c-2.742,0.016-2.115-2.009-2.125-3.542
			C349.633,217.312,349.656,210.502,349.656,203.692z"/>
		<path fill-rule="evenodd" clip-rule="evenodd" fill="#3D3D3F" d="M340.345,204.112c0,6.822-0.086,13.646,0.046,20.465
			c0.047,2.41-0.778,3.118-3.146,3.172c-2.587,0.058-2.965-1.078-2.953-3.272c0.07-13.644,0.084-27.288-0.011-40.931
			c-0.017-2.362,0.654-3.137,3.074-3.134c2.493,0.003,3.071,0.948,3.032,3.236C340.271,190.468,340.345,197.291,340.345,204.112z"/>
		<path fill-rule="evenodd" clip-rule="evenodd" fill="#6F6F71" d="M200.483,227.465c0-10.992,0-21.983,0-33.006
			c1.894-0.326,1.939,0.874,2.012,2.049c-1.864,1.168-0.909,3.008-0.932,4.508c-0.107,7.327,0.013,14.658-0.1,21.985
			C201.441,224.487,202.438,226.35,200.483,227.465z"/>
		<path fill-rule="evenodd" clip-rule="evenodd" fill="#A7A7A8" d="M213.537,197.536c-0.144-1.259,0.56-2.109,1.975-3.522
			c0,11.573,0,22.525,0,33.478c-1.841-1.153-0.992-2.993-1.014-4.508c-0.098-6.945,0.008-13.894-0.082-20.84
			C214.396,200.601,215.169,198.808,213.537,197.536z"/>
		<path fill-rule="evenodd" clip-rule="evenodd" fill="#D8D8D9" d="M374.343,192.479c-0.277-0.304-0.555-0.607-0.832-0.91
			c-0.347-0.355-0.514-0.785-0.533-1.278c0.411-2.109,0.06-4.332,0.915-6.382c0.278-0.432,0.674-0.674,1.18-0.731
			c0.474,0.146,0.835,0.437,1.083,0.864c0.49,1.121,0.445,2.246,0.046,3.392c-0.206,0.591-0.199,1.233-0.344,1.844
			c0.727-0.403-0.073-1.384,0.679-1.782c2.208-1.169,3.352,0.366,4.555,1.779c1.29,2.258,0.818,3.843-1.765,4.615
			C377.493,194.027,375.889,193.356,374.343,192.479z"/>
		<path fill-rule="evenodd" clip-rule="evenodd" fill="#E6E6E6" d="M382.508,182.52c0.629,1.051,1.258,2.102,1.887,3.152
			c-0.256,1.617-0.512,3.234-0.768,4.851c-0.899,0.778-1.694,0.615-2.41-0.263c-0.189-0.906-1.001-1.518-1.174-2.433
			c0.112-1.485,0.278-2.976-0.179-4.444c-0.071-0.672,0.031-1.295,0.516-1.807C381.246,181.537,382.064,181.606,382.508,182.52z"/>
		<path fill-rule="evenodd" clip-rule="evenodd" fill="#5C5C5D" d="M373.578,190.472c-0.022,0.366-0.045,0.731-0.067,1.098
			c-3.933-2.689-3.922-6.265,0.027-9c0.139,0.18,0.278,0.359,0.417,0.538C373.338,185.537,373.554,188.009,373.578,190.472z"/>
		<path fill-rule="evenodd" clip-rule="evenodd" fill="#A5A5A6" d="M380.38,181.576c0.07,0.593,0.14,1.186,0.209,1.779
			c-0.351,0.908-1.128,1.315-1.954,1.668c-0.653,0.193-1.302,0.188-1.941-0.061c-0.562-0.373-0.789-1.03-1.258-1.484l0.06,0.077
			c-1.536-3.465,2.4-1.527,2.923-2.961C379.072,180.922,379.727,181.249,380.38,181.576z"/>
		<path fill-rule="evenodd" clip-rule="evenodd" fill="#565658" d="M381.025,189.464c0.5,1.256,1.5,1.282,2.602,1.059
			c0.357,0.028,0.715,0.056,1.072,0.084c-1.331,1.329-1.825,3.618-4.243,3.701c-0.48-0.284-1.142-0.343-1.292-1.037
			c2.321-0.6,2.279-2.008,1.283-3.744C380.64,189.506,380.833,189.485,381.025,189.464z"/>
		<path fill-rule="evenodd" clip-rule="evenodd" fill="#5B5B5D" d="M378.418,180.595c0.373,2.317-3.661,0.283-2.923,2.961
			c-0.32-0.04-0.613-0.151-0.88-0.334c-0.513-0.057-0.897-0.308-1.154-0.755l0.077,0.103
			C374.021,179.083,376.6,180.78,378.418,180.595z"/>
		<path fill-rule="evenodd" clip-rule="evenodd" fill="#49494B" d="M379.164,193.271c0.431,0.346,0.861,0.691,1.292,1.037
			c-2.245,0.085-4.828,1.295-6.113-1.828C375.95,192.743,377.558,193.007,379.164,193.271z"/>
		<path fill-rule="evenodd" clip-rule="evenodd" fill="#F8FCFE" d="M237.491,256.145c0-4.481-0.01-8.962,0.006-13.443
			c0.005-1.31-0.21-2.81,1.877-2.719c1.864,0.082,1.988,1.347,1.985,2.777c-0.013,8.139-0.004,16.276-0.007,24.415
			c-0.001,1.155,0.144,2.435-1.408,2.768c-1.621,0.348-2.402-0.552-2.906-1.983c-1.58-4.489-3.221-8.956-5.684-13.382
			c0,4.158,0.005,8.317-0.004,12.476c-0.002,1.325,0.179,2.844-1.793,2.895c-1.958,0.05-1.912-1.407-1.912-2.774
			c0.001-8.138-0.003-16.276,0.004-24.415c0.001-1.157-0.129-2.437,1.474-2.698c1.733-0.284,2.239,0.911,2.707,2.248
			c1.626,4.651,3.306,9.284,4.965,13.924C237.026,256.202,237.259,256.174,237.491,256.145z"/>
		<path fill-rule="evenodd" clip-rule="evenodd" fill="#FAFDFE" d="M330.557,254.843c-0.041-3.683,0.382-7.292,1.854-10.704
			c1.216-2.817,3.245-4.619,6.452-4.604c2.998,0.014,5.113,1.684,6.133,4.317c2.861,7.396,2.793,14.917,0.055,22.323
			c-0.974,2.634-3.056,4.263-6.097,4.34c-3.293,0.084-5.236-1.729-6.508-4.489C330.811,262.476,330.583,258.669,330.557,254.843z"/>
		<path fill-rule="evenodd" clip-rule="evenodd" fill="#F9FCFE" d="M298.646,253.279c0-3.327-0.016-6.654,0.007-9.981
			c0.011-1.455-0.331-3.203,1.944-3.297c2.499-0.102,1.876,1.834,1.888,3.18c0.054,5.988-0.033,11.979,0.054,17.966
			c0.033,2.229-0.398,5.308,2.956,5.264c3.371-0.044,2.789-3.116,2.814-5.345c0.064-5.822-0.023-11.646,0.054-17.467
			c0.02-1.463-0.787-3.664,2.019-3.595c2.269,0.056,1.963,1.81,1.966,3.275c0.012,6.487,0.13,12.979-0.039,19.462
			c-0.134,5.102-2.882,7.886-7.158,7.76c-4.218-0.123-6.359-2.624-6.489-7.74C298.581,259.603,298.646,256.439,298.646,253.279z"/>
		<path fill-rule="evenodd" clip-rule="evenodd" fill="#E9F7FD" d="M322.306,239.844c0.999,0,2.002-0.058,2.996,0.015
			c1.244,0.091,2.885-0.445,3.287,1.402c0.465,2.133-0.962,2.384-2.64,2.527c-2.245,0.193-1.758,2.069-1.769,3.46
			c-0.049,6.327,0.01,12.654-0.046,18.98c-0.014,1.535,0.621,3.689-1.944,3.819c-2.981,0.15-2.31-2.241-2.325-3.931
			c-0.059-6.16-0.037-12.321-0.018-18.481c0.007-2.065,0.184-4.146-2.901-3.996c-1.295,0.063-1.626-0.868-1.581-1.997
			c0.051-1.257,0.825-1.73,1.947-1.752c1.663-0.032,3.328-0.009,4.993-0.009C322.306,239.869,322.306,239.856,322.306,239.844z"/>
		<path fill-rule="evenodd" clip-rule="evenodd" fill="#F5FBFD" d="M262.635,256.603c0-2.819,0.004-5.64-0.002-8.46
			c-0.004-2.261,0.619-4.924-3.222-4.544c-0.907,0.09-1.456-0.658-1.449-1.632c0.008-1.143,0.512-1.979,1.712-2.001
			c3.315-0.063,6.633-0.048,9.949-0.039c1.15,0.003,1.845,0.512,1.862,1.776c0.017,1.145-0.311,2.054-1.612,1.928
			c-3.861-0.372-3.186,2.343-3.19,4.586c-0.013,6.138,0.032,12.276-0.034,18.413c-0.014,1.331,0.667,3.274-1.73,3.389
			c-2.585,0.123-2.272-1.821-2.278-3.462C262.626,263.238,262.636,259.921,262.635,256.603z"/>
		<path fill-rule="evenodd" clip-rule="evenodd" fill="#FAFDFE" d="M248.171,266.495c3.854,0.139,3.969-2.422,3.065-4.975
			c-1.102-3.112-2.78-6.02-4.173-9.032c-1.125-2.433-2.029-4.928-1.604-7.688c0.543-3.532,4.021-6.019,7.183-5.222
			c1.326,0.335,2.029,1.032,1.971,2.415c-0.04,0.926-0.344,1.495-1.468,1.473c-5.386-0.105-3.937,3.205-2.825,6.042
			c1.511,3.854,3.626,7.501,4.854,11.433c1.783,5.709-2.122,10.584-7.151,9.459c-1.645-0.368-2.631-1.122-2.543-3.04
			C245.606,264.568,247.138,266.439,248.171,266.495z"/>
		<path fill-rule="evenodd" clip-rule="evenodd" fill="#F0F9FD" d="M286.865,256.613c0-2.994-0.014-5.988,0.005-8.982
			c0.012-2.047,0.223-4.16-2.884-3.995c-1.272,0.067-1.655-0.802-1.618-1.957c0.041-1.268,0.802-1.756,1.922-1.765
			c3.159-0.025,6.319-0.013,9.479,0.009c1.242,0.008,1.71,0.733,1.732,1.914c0.024,1.238-0.531,1.932-1.756,1.814
			c-3.494-0.335-3.063,2.071-3.059,4.236c0.012,5.988,0.087,11.979-0.054,17.964c-0.036,1.515,1.193,4.255-1.91,4.096
			c-2.831-0.146-1.729-2.742-1.813-4.353C286.756,262.608,286.866,259.608,286.865,256.613z"/>
		<path fill-rule="evenodd" clip-rule="evenodd" fill="#DEF4FC" d="M217.806,254.92c0.001-3.993,0.009-7.986-0.003-11.98
			c-0.005-1.605,0.132-3.119,2.276-3.063c2.186,0.057,2.113,1.695,2.114,3.223c0.005,7.987-0.003,15.975,0.005,23.961
			c0.001,1.605-0.133,3.12-2.277,3.063c-2.184-0.058-2.111-1.694-2.114-3.224C217.8,262.907,217.805,258.914,217.806,254.92z"/>
		<path fill-rule="evenodd" clip-rule="evenodd" fill="#F4FBFD" d="M278.677,255.099c-0.001,4.153,0.008,8.308-0.007,12.462
			c-0.004,1.185-0.011,2.421-1.688,2.48c-1.672,0.06-2.359-0.765-2.354-2.428c0.029-8.309,0.019-16.616-0.001-24.924
			c-0.003-1.467,0.221-2.657,2.054-2.727c1.993-0.076,1.993,1.295,1.995,2.674C278.681,246.79,278.678,250.944,278.677,255.099z"/>
		<path fill-rule="evenodd" clip-rule="evenodd" fill="#FDFDFD" d="M246.676,204.429c-0.078,4.979-0.092,9.959-2.112,14.665
			c-0.833,1.94-1.98,3.577-4.24,3.698c-2.563,0.137-4.001-1.635-4.645-3.772c-2.993-9.938-3.053-19.931,0.055-29.857
			c0.602-1.924,1.882-3.648,4.206-3.733c2.585-0.095,3.756,1.763,4.641,3.834C246.656,194.126,246.617,199.284,246.676,204.429z"/>
		<path fill-rule="evenodd" clip-rule="evenodd" fill="#FEFEFE" d="M265.5,204.104c0-4.811,0.204-9.632-0.065-14.428
			c-0.207-3.696,1.615-3.85,4.188-2.901c2.656,0.979,4.279,3.07,5.044,5.765c2.176,7.668,2.271,15.344-0.012,23.019
			c-0.486,1.635-1.394,2.967-2.56,4.189c-1.491,1.563-3.497,2.495-5.37,2.003c-2.446-0.643-1.079-3.107-1.155-4.711
			C265.366,212.736,265.5,208.417,265.5,204.104z"/>
		<path fill-rule="evenodd" clip-rule="evenodd" fill="#444446" d="M381.025,189.464l-0.295-0.027l-0.283,0.09
			c-1.846-1.209-4.12-4.48-5.012,0.972c0-2.34,0-4.68,0-7.02c0.405,0.374,0.81,0.748,1.214,1.122
			c1.022,1.324,2.954,0.524,4.03,1.727c0.227,0.428,0.173,0.805-0.199,1.125C380.662,188.123,380.844,188.794,381.025,189.464z"/>
		<path fill-rule="evenodd" clip-rule="evenodd" fill="#DFDFDF" d="M373.461,182.467c0.727-0.271,0.981,0.18,1.154,0.755
			c-0.561,2.386,0.811,5.048-1.037,7.25C371.425,187.835,373.21,185.14,373.461,182.467z"/>
		<path fill-rule="evenodd" clip-rule="evenodd" fill="#4F4F51" d="M380.48,187.452c-0.035-0.419-0.07-0.839-0.106-1.258
			c-0.662-0.539-1.533-0.875-1.767-1.829c0.335-0.976,1.267-0.78,1.981-1.01C382.265,184.767,381.992,186.126,380.48,187.452z"/>
		<path fill-rule="evenodd" clip-rule="evenodd" fill="#F6F6F6" d="M378.607,184.365c1.207,0.013,1.981,0.443,1.767,1.829
			c-1.406-0.146-3.715,1.819-3.725-1.594C377.302,184.522,377.955,184.443,378.607,184.365z"/>
		<path fill-rule="evenodd" clip-rule="evenodd" fill="#02AEEE" d="M342.632,256.503c-0.039,1.818,0.258,4.989-1.159,7.949
			c-0.522,1.092-1.184,2.03-2.499,2.126c-1.585,0.116-2.548-0.928-2.939-2.211c-1.929-6.32-2.214-12.73,0.214-18.939
			c1.107-2.835,3.754-2.72,5.139,0.029C342.93,248.517,342.67,251.889,342.632,256.503z"/>
	</g>
</g>
</svg>
