<?xml version="1.0" encoding="utf-8"?>
<!-- Generator: Adobe Illustrator 16.0.0, SVG Export Plug-In . SVG Version: 6.00 Build 0)  -->
<!DOCTYPE svg PUBLIC "-//W3C//DTD SVG 1.1//EN" "http://www.w3.org/Graphics/SVG/1.1/DTD/svg11.dtd">
<svg version="1.1" id="Capa_1" xmlns="http://www.w3.org/2000/svg" xmlns:xlink="http://www.w3.org/1999/xlink" x="0px" y="0px"
	 width="560px" height="454px" viewBox="0 0 560 454" enable-background="new 0 0 560 454" xml:space="preserve">
<g id="Agency-2">
	<g id="Agency-1" transform="translate(-172.000000, -1602.000000)">
		<g id="_x31_" transform="translate(172.000000, 1602.000000)">
			<rect id="Rectangle-Copy-16" fill="#FFFFFF" width="560" height="454"/>
		</g>
	</g>
</g>
<g>
	<g>
		<path fill-rule="evenodd" clip-rule="evenodd" fill="#1F140F" d="M371.5,195.5c0,1,0,2,0,3c-1.113,2.296-3.189,3.271-5.446,4.051
			c-5.198,1.796-10.396,3.604-15.651,5.211c-3.732,1.141-5.153,3.317-5.3,7.275c-0.501,13.516,1.411,26.948,1.081,40.445
			c-0.086,3.494,0.147,7.001-0.632,10.456c-0.834,3.698-2.564,6.438-6.711,7.041c-5.263,0.765-9.051-0.687-11.255-4.532
			c-0.837-1.458-1.443-3.04-1.702-4.681c-1.529-9.705-1.495-19.496-1.894-27.44c-1.766,7.215-4.274,16.185-6.474,25.235
			c-1.383,5.692-5.433,8.203-11.648,8.073c-6.186-0.129-10.552-3.232-11.747-8.841c-1.385-6.492-2.697-13.011-3.358-19.6
			c-0.786,6.336-1.473,12.701-2.819,18.969c-0.527,2.456-1.259,4.859-2.819,6.886c-2.213,2.873-5.119,4.285-8.751,3.547
			c-3.657-0.743-5.706-3.142-6.459-6.778c-1.14-5.51-0.065-10.954,0.409-16.411c0.264-3.044,0.892-6.063,0.784-9.601
			c-2.211,1.694-1.969,3.684-2.309,5.393c-1.494,7.523-2.16,15.175-3.377,22.74c-1.01,6.286-3.509,8.814-9.04,9.647
			c-6.426,0.967-12.468-1.789-14.83-6.81c-1.365-2.899-1.67-6.089-2.447-9.151c-0.57-2.247,0.237-6.207-2.586-6.189
			c-3.144,0.02-2.04,3.917-2.435,6.21c-0.593,3.445-0.723,6.969-1.446,10.391c-0.764,3.609-2.55,6.552-6.378,7.63
			c-5.713,1.608-10.61-1.84-11.332-7.908c-0.694-5.835-0.694-5.835-6.217-3.61c-3.405,1.372-6.811,2.766-10.551,2.878
			c-3.118,0.093-6.041-0.321-7.66-3.525c0-0.667,0-1.333,0-2c1.144-2.553,3.206-4.138,5.537-5.551
			c4.99-3.025,10.157-5.733,15.229-8.608c2.997-1.698,4.742-4.006,5.29-7.389c3.729-23.051,10.942-45.346,14.844-68.364
			c0.901-5.316,2.655-6.475,8.267-6.581c7.338-0.14,10.229,1.121,10.887,6.054c1.559,11.698,2.566,23.468,3.164,33.994
			c1.141-7.847,2.177-17.052,5.397-25.773c2.263-6.127,5.479-7.966,11.953-7.311c4.487,0.453,6.545,2.417,6.946,6.998
			c0.572,6.527-0.192,12.969-1.495,19.369c-1.261,6.19-2.557,12.378-2.94,18.83c1.64-1.313,1.979-3.286,2.425-5.205
			c2.449-10.545,4.301-21.257,8.365-31.359c2.657-6.603,7.819-8.9,14.466-6.801c3.706,1.171,5.725,3.462,6.41,7.42
			c1.172,6.763,0.514,13.662,1.829,20.389c0.267,1.365-0.353,3.393,1.688,3.675c1.726,0.237,3.155-0.816,4.083-2.377
			c1.717-2.886,2.747-6.067,3.929-9.178c2.483-6.544,4.883-13.126,7.924-19.436c2.813-5.834,8.098-7.741,15.254-5.733
			c5.78,1.622,7.7,4.876,6.848,11.944c-0.359,2.983-0.618,5.956-0.677,8.962c-0.053,2.71,0.896,3.699,3.607,2.736
			c2.981-1.06,5.982-2.104,9.106-2.669C363.729,190.652,368.118,191.498,371.5,195.5z"/>
		<path fill-rule="evenodd" clip-rule="evenodd" fill="#FEFEFE" d="M190.5,265.5c4.674,3.151,9.549,2.216,14.343,0.499
			c3.564-1.277,7-2.914,11.149-4.668c0.166,3.25,0.495,6.151,0.419,9.041c-0.11,4.138,2.354,5.629,5.839,6.003
			c3.687,0.395,7.095-0.056,8.293-4.452c1.233-4.523,1.48-9.185,1.929-13.817c0.128-1.325,0.08-2.673,0.288-3.983
			c0.489-3.067,3.337-4.009,5.492-4.256c2.233-0.257,1.15,2.566,1.501,3.968c1.089,4.346,1.573,8.858,2.864,13.134
			c1.955,6.475,13.639,9.659,18.866,5.377c1.537-1.26,1.896-2.997,2.153-4.864c1.249-9.061,2.704-18.095,3.815-27.171
			c0.454-3.705,1.949-5.772,6.086-5.85c-0.778,6.866-1.611,13.606-2.271,20.364c-0.241,2.471-0.055,4.982-0.091,7.475
			c-0.06,4.176,1.907,6.604,6.116,6.997c4.291,0.4,7.289-1.563,8.098-5.711c1.589-8.153,2.77-16.386,4.131-24.584
			c0.211-1.268-0.086-2.693,1.538-4.103c1.514,8.469,3.01,16.608,4.414,24.764c1.073,6.236,3.261,8.103,10.174,8.427
			c6.655,0.312,9.373-1.552,10.645-7.846c1.944-9.624,4.699-19.018,7.607-28.376c0.226-0.725,0.664-1.382,1.004-2.071
			c0.517,0.022,1.032,0.045,1.549,0.067c0,8.563,0.011,17.125-0.006,25.687c-0.007,3.871,0.841,7.579,1.946,11.259
			c0.865,2.876,2.739,4.353,5.691,4.81c6.946,1.076,9.752-0.652,10.204-7.842c0.458-7.288,0-14.639-0.141-21.959
			c-0.189-9.822-0.353-19.646-0.76-29.46c-0.125-3.015,0.839-4.3,3.746-5.267c8.169-2.718,16.56-4.842,24.367-8.591
			c0,29.167-0.056,58.334,0.085,87.5c0.015,2.984-0.587,3.704-3.588,3.589c-7.156-0.275-14.33-0.089-21.497-0.089
			c-2.834-1.377-2.877-3.993-2.709-6.686c-0.252,2.335,0.401,4.7-1.291,6.686c-3,0-6,0-9,0c-1.689-1.391-1.213-3.505-1.777-5.27
			c-0.14-0.546-0.166-1.121-0.375-1.585c-1.068,2.21,0.38,5.032-1.848,6.854c-3.667,0-7.333,0-11,0
			c-0.325-0.339-0.451-0.74-0.384-1.201c0.745-1.895,1.735-3.78,0.23-5.731c-3.104,1.675,0.695,5.15-1.847,6.933
			c-3.333,0-6.667,0-10,0c-2.43-1.879-0.421-5.117-2.212-7.167c-0.549-0.106-1.083-0.093-1.594,0.146
			c-1.787,2.024,0.204,5.215-2.194,7.021c-6.667,0-13.333,0-20,0c-1.149-1.051-1.534-2.446-1.773-3.907
			c-0.156-0.743,0.063-1.536-0.337-2.376c-0.937,2.067,0.124,4.657-1.89,6.283c-3.333,0-6.667,0-10,0
			c-2.7-1.798-1.433-4.603-1.79-6.926c-0.355,2.268,0.641,4.845-1.21,6.926c-3.667,0-7.333,0-11,0
			c-0.512-0.52-0.841-1.127-0.896-1.865c0.13-1.488,0.371-2.955,0.952-4.346c0.063-0.151,0.254-0.299,0.235-0.426
			c-0.063-0.443-0.258-0.452-0.514-0.038c-0.323,0.011-0.627,0.03-0.912,0.096c-0.536,0.937,0.351,1.704,0.265,2.574
			c-0.126,1.411,0.006,2.889-1.13,4.005c-3.333,0-6.667,0-10,0c-2.927-1.336-2.762-4.045-2.755-6.666
			c-0.206,2.315,0.447,4.681-1.245,6.666c-3,0-6,0-9,0c-2.317-1.779-0.609-4.803-2.11-6.778c-1.132,2.156,0.354,4.992-1.89,6.778
			c-10.078,0-20.158-0.079-30.234,0.062c-2.233,0.03-2.925-0.292-2.846-2.751C190.646,279.713,190.5,272.604,190.5,265.5z"/>
		<path fill-rule="evenodd" clip-rule="evenodd" fill="#FEFEFE" d="M371.5,195.5c-9.393-5.685-18.151-0.682-27.55,2.29
			c0.498-6.49,0.765-12.289,1.444-18.039c0.512-4.326-1.285-6.448-5.296-7.577c-7.794-2.195-11.893-0.358-14.816,6.967
			c-3.015,7.555-6.378,14.992-8.97,22.689c-1.752,5.203-4.733,8.063-10.558,8.506c-0.701-8.832-1.694-17.675-1.994-26.541
			c-0.177-5.21-3.306-6.54-7.308-7.035c-4.076-0.504-8.065-0.3-9.97,4.461c-3.161,7.907-4.89,16.215-6.93,24.434
			c-1.001,4.032-2.002,8.076-2.719,12.165c-0.607,3.464-2.47,5.177-6.23,5.446c1.798-9.956,3.527-19.752,5.353-29.53
			c0.709-3.795,0.856-7.603,0.771-11.438c-0.07-3.113-0.273-6.003-4.269-6.807c-5.851-1.177-9.136-0.178-11.056,4.011
			c-2.879,6.277-3.54,13.128-4.893,19.799c-0.968,4.772-1.319,9.703-3.611,15.671c-1.221-13.837-2.319-26.207-3.399-38.578
			c-0.639-7.317-3.374-9.553-10.686-8.871c-3.278,0.306-5.16,1.837-5.654,5.179c-2.948,19.935-9.213,39.144-12.96,58.905
			c-0.093,0.488-0.41,0.966-0.392,1.439c0.462,11.95-5.993,18.587-16.553,22.737c-4.559,1.791-8.522,5.099-12.756,7.718
			c0-30.949,0.047-61.899-0.073-92.849c-0.012-3.085,0.167-4.276,3.909-4.266c57.905,0.164,115.812,0.148,173.717,0.021
			c3.111-0.007,3.597,0.779,3.524,3.637C371.361,178.524,371.5,187.014,371.5,195.5z"/>
		<path fill-rule="evenodd" clip-rule="evenodd" fill="#1F140F" d="M276.5,289.5c-0.866-2.072-0.404-4.249-0.384-6.366
			c0.014-1.391-0.987-3.666,1.871-3.598c2.806,0.066,2.389,2.168,2.241,3.96c-0.052,0.632-0.415,1.239-0.636,1.857
			c0.747,1.675,0.573,3.107-1.093,4.146C277.833,289.5,277.167,289.5,276.5,289.5z"/>
		<path fill-rule="evenodd" clip-rule="evenodd" fill="#4E4642" d="M236.5,289.5c0.113-2.467,0.305-4.934,0.313-7.4
			c0.005-1.738,0.403-3.237,2.421-2.609c2.807,0.874-0.27,2.173-0.165,2.288c2.1,2.315-1.26,5.61,1.432,7.722
			C239.167,289.5,237.833,289.5,236.5,289.5z"/>
		<path fill-rule="evenodd" clip-rule="evenodd" fill="#4E4642" d="M342.5,289.5c0.113-2.467,0.305-4.934,0.313-7.4
			c0.005-1.738,0.403-3.237,2.421-2.609c2.807,0.874-0.27,2.173-0.165,2.288c2.1,2.315-1.26,5.61,1.432,7.722
			C345.167,289.5,343.833,289.5,342.5,289.5z"/>
		<path fill-rule="evenodd" clip-rule="evenodd" fill="#3F3631" d="M263.5,289.5c-0.065-2.819-0.13-5.64-0.197-8.459
			c-0.043-1.813,1.285-1.781,2.396-1.541c2.021,0.436,0.091,1.294,0.163,1.891c0.324,2.698-0.729,5.51,0.639,8.109
			C265.5,289.5,264.5,289.5,263.5,289.5z"/>
		<path fill-rule="evenodd" clip-rule="evenodd" fill="#1F140F" d="M329.5,289.5c0.013-2.58-0.057-5.164,0.063-7.739
			c0.101-2.195,0.196-2.191,2.974-1.267c-1.66,1.668-0.702,3.09,0.422,4.5c-0.164,1.608-0.286,3.228-1.458,4.506
			C330.833,289.5,330.167,289.5,329.5,289.5z"/>
		<path fill-rule="evenodd" clip-rule="evenodd" fill="#271C17" d="M316.5,289.5c-0.184-2.254-0.418-4.506-0.538-6.763
			c-0.155-2.936,1.393-2.849,3.401-1.816c0.099,0.426,0.075,0.845-0.068,1.257c-0.588,1.663-0.326,3.37-0.252,5.069
			c-0.062,0.448-0.275,0.812-0.616,1.103c0.024,0.384,0.049,0.767,0.073,1.15C317.833,289.5,317.167,289.5,316.5,289.5z"/>
		<path fill-rule="evenodd" clip-rule="evenodd" fill="#211611" d="M223.5,289.5c-0.043-2.586-0.059-5.173-0.138-7.758
			c-0.048-1.534,0.277-2.581,2.15-2.092c3.059,1.687,0.244,3.856,0.478,5.778c-0.051,1.521-0.278,2.977-1.49,4.071
			C224.167,289.5,223.833,289.5,223.5,289.5z"/>
		<path fill-rule="evenodd" clip-rule="evenodd" fill="#281E19" d="M224.575,284.688c0.476-1.648,2.675-2.977,0.938-5.037
			c1.896-0.513,2.189,0.574,2.144,2.091c-0.078,2.585-0.106,5.173-0.156,7.759c-0.333,0-0.667,0-1,0
			C225.048,288.22,225.576,286.148,224.575,284.688z"/>
		<path fill-rule="evenodd" clip-rule="evenodd" fill="#201510" d="M300.5,289.5c-0.037-2.831-0.079-5.661-0.108-8.492
			c-0.011-0.971,0.364-1.613,1.461-1.387c0.837,0.174,0.813,0.891,0.823,1.549c1.332,2.239,0.271,4.627,0.436,6.941
			c-0.322,0.71-1.064,0.937-1.611,1.389C301.167,289.5,300.833,289.5,300.5,289.5z"/>
		<path fill-rule="evenodd" clip-rule="evenodd" fill="#201510" d="M304.333,280.214c1.564-1.282,2.225-0.802,2.205,1.107
			c-0.028,2.727-0.026,5.452-0.038,8.179c-0.333,0-0.667,0-1,0c-1.336-1.21-1.36-2.913-1.712-4.496
			C303.333,283.336,303.718,281.762,304.333,280.214z"/>
		<path fill-rule="evenodd" clip-rule="evenodd" fill="#201611" d="M251.418,280.545c0.363,0.529-0.11,1.547,0.968,1.659
			c1.677,1.788-0.345,3.524-0.074,5.293c0.063,0.668,0.126,1.335,0.188,2.003c-0.667,0-1.333,0-2,0
			c-0.057-1.591-0.112-3.183-0.169-4.773C250.278,283.225,248.805,281.354,251.418,280.545z"/>
		<path fill-rule="evenodd" clip-rule="evenodd" fill="#403733" d="M331.5,289.5c0.304-1.542,0.607-3.084,0.911-4.626
			c-0.378-0.587-0.317-1.126,0.182-1.615c1.396,1.921,1.336,4.055,0.907,6.241C332.833,289.5,332.167,289.5,331.5,289.5z"/>
		<path fill-rule="evenodd" clip-rule="evenodd" fill="#8D8885" d="M305.378,284.754c0.041,1.582,0.081,3.164,0.122,4.746
			c-1.333,0-2.667,0-4,0c0.3-0.393,0.6-0.784,0.9-1.177C304.046,287.678,302.37,284.263,305.378,284.754z"/>
		<path fill-rule="evenodd" clip-rule="evenodd" fill="#A8A4A2" d="M224.575,284.688c1.478,1.271,2.074,2.892,1.925,4.813
			c-0.667,0-1.333,0-2,0C224.525,287.896,224.551,286.292,224.575,284.688z"/>
		<path fill-rule="evenodd" clip-rule="evenodd" fill="#4F4642" d="M278.5,289.5c0.364-1.382,0.729-2.765,1.093-4.146
			c1.225,1.181,0.77,2.729,0.907,4.146C279.833,289.5,279.167,289.5,278.5,289.5z"/>
		<path fill-rule="evenodd" clip-rule="evenodd" fill="#F1F0F0" d="M307.919,232.509c-1.883-3.324-1.741-6.56-2.419-9.58
			c-0.586-2.616,1.364-3.145,3.23-3.254c2.335-0.138,2.777,1.438,2.257,3.333C310.166,226.001,310.038,229.221,307.919,232.509z"/>
		<path fill-rule="evenodd" clip-rule="evenodd" fill="#CFCDCC" d="M236.356,229.64c0.379,2.075,0.794,4.145,1.123,6.227
			c0.222,1.397-0.626,2.444-1.838,2.472c-2.112,0.047-0.985-1.619-0.886-2.508c0.231-2.062,0.689-4.099,1.055-6.145
			C235.993,229.67,236.175,229.654,236.356,229.64z"/>
		<path fill-rule="evenodd" clip-rule="evenodd" fill="#443B37" d="M305.378,284.754c-1.247,0.978-0.768,3.396-2.978,3.569
			c-1.119-2.432-0.848-4.809,0.275-7.153c0.553-0.318,1.105-0.637,1.657-0.956C304.682,281.728,305.029,283.24,305.378,284.754z"/>
		<path fill-rule="evenodd" clip-rule="evenodd" fill="#473E3A" d="M318.427,288.35l0.095-0.276
			c-0.516-2.239-1.189-4.482,0.213-6.659c0.131-0.271,0.341-0.435,0.629-0.493C320.435,283.571,322.067,286.293,318.427,288.35z"/>
		<path fill-rule="evenodd" clip-rule="evenodd" fill="#2E241F" d="M252.312,287.497c-1.369-1.784,0.868-3.518,0.074-5.293
			c0.035-0.773,0.07-1.547,0.106-2.32C254.066,282.499,254.025,285.037,252.312,287.497z"/>
		<path fill-rule="evenodd" clip-rule="evenodd" fill="#4E4541" d="M332.593,283.259c-0.061,0.537-0.121,1.074-0.182,1.613
			c-2.483-1.53-3.426-3.018,0.125-4.378C334.626,281.373,332.274,282.344,332.593,283.259z"/>
		<path fill-rule="evenodd" clip-rule="evenodd" fill="#58504C" d="M251.418,280.545c-1.29,1.153-0.399,2.872-1.087,4.182
			c-0.918-1.245-0.939-2.776-0.737-4.106C249.854,278.902,250.735,279.078,251.418,280.545z"/>
		<path fill-rule="evenodd" clip-rule="evenodd" fill="#CDCAC9" d="M318.734,281.414c-0.071,2.22-0.143,4.438-0.213,6.658
			C317.072,285.805,316.35,283.56,318.734,281.414z"/>
	</g>
</g>
</svg>
