<?xml version="1.0" encoding="utf-8"?>
<!-- Generator: Adobe Illustrator 16.0.0, SVG Export Plug-In . SVG Version: 6.00 Build 0)  -->
<!DOCTYPE svg PUBLIC "-//W3C//DTD SVG 1.1//EN" "http://www.w3.org/Graphics/SVG/1.1/DTD/svg11.dtd">
<svg version="1.1" id="Capa_1" xmlns="http://www.w3.org/2000/svg" xmlns:xlink="http://www.w3.org/1999/xlink" x="0px" y="0px"
	 width="560px" height="454px" viewBox="0 0 560 454" enable-background="new 0 0 560 454" xml:space="preserve">
<g id="Agency-2">
	<g id="Agency-1" transform="translate(-172.000000, -1602.000000)">
		<g id="_x31_" transform="translate(172.000000, 1602.000000)">
			<rect id="Rectangle-Copy-16" fill="#FFFFFF" width="560" height="454"/>
		</g>
	</g>
</g>
<g>
	<g>
		<path fill-rule="evenodd" clip-rule="evenodd" fill="#FEFEFE" d="M81.712,158.051c132.333,0,264.667,0,397,0
			c0,46.143,0,92.286,0,138.43c-132.334,0-264.667,0-397,0C81.712,250.337,81.712,204.194,81.712,158.051z"/>
		<path fill-rule="evenodd" clip-rule="evenodd" d="M151.879,293.061c-21.439,0-42.879,0-64.319,0c-0.212,0-0.425,0.003-0.638-0.001
			c-0.792-0.013-0.792-0.014-0.807-0.821c-0.004-0.212,0-0.425,0-0.638c0-42.915,0-85.83,0-128.745c0-1.403,0-1.403,1.391-1.403
			c42.951,0,85.901-0.001,128.852,0.004c1.502,0,1.335-0.261,1.338,1.354c0.006,5.209,0.002,10.419,0.002,15.628
			c0,0.284-0.003,0.567-0.003,0.851c0.001,0.308-0.145,0.436-0.457,0.435c-1.701-0.007-3.402-0.009-5.103,0.001
			c-0.379,0.002-0.498-0.174-0.481-0.519c0.012-0.248,0.001-0.496,0.001-0.744c0-3.402,0.003-6.804-0.002-10.206
			c-0.001-0.766-0.016-0.767-0.742-0.785c-0.212-0.005-0.425-0.001-0.638-0.001c-38.911,0-77.821,0-116.732,0
			c-1.409,0-1.409,0-1.409,1.399c0,38.946,0,77.892,0,116.837c0,1.31,0,1.311,1.28,1.311c38.981,0,77.962,0,116.944,0
			c1.299,0,1.299-0.001,1.299-1.282c0-3.649-0.002-7.3,0.001-10.95c0.001-0.851,0.01-0.857,0.868-0.861
			c1.489-0.005,2.978,0.023,4.465-0.015c0.57-0.015,0.719,0.178,0.718,0.726c-0.016,5.883-0.007,11.767-0.013,17.648
			c0,0.759-0.019,0.76-0.75,0.775c-0.248,0.007-0.496,0.002-0.745,0.002C194.759,293.061,173.319,293.061,151.879,293.061z"/>
		<path fill-rule="evenodd" clip-rule="evenodd" d="M237.962,235.943c8.526,0.023,15.223,7.265,14.936,15.611
			c-0.276,7.998-7.108,14.585-15.214,14.49c-8.534-0.099-15.018-7.308-14.889-15.354
			C222.914,243.211,229.169,235.859,237.962,235.943z"/>
		<path fill-rule="evenodd" clip-rule="evenodd" d="M222.163,203.485c0.151,8.486-7.169,15.09-15.027,15.077
			c-7.823-0.013-15.093-6.521-15.037-15.093c0.054-8.361,6.701-14.955,15.105-15.006
			C215.322,188.414,222.309,195.275,222.163,203.485z"/>
		<path fill-rule="evenodd" clip-rule="evenodd" d="M434.413,235.944c8.218,0.034,14.95,6.85,14.895,15.122
			c-0.057,8.457-7.034,15.101-15.263,14.979c-8.26-0.122-14.957-6.944-14.844-15.293
			C419.311,242.64,426.028,235.835,434.413,235.944z"/>
		<path fill-rule="evenodd" clip-rule="evenodd" d="M415.807,251.011c0.249,7.675-6.302,15.067-15.048,15.033
			c-8.618-0.035-15.103-7.249-14.993-15.128c0.115-8.314,6.676-14.943,15.035-14.973
			C409.655,235.912,416.101,243.451,415.807,251.011z"/>
		<path fill-rule="evenodd" clip-rule="evenodd" d="M233.325,201.384c0,0.341,0,0.682,0,1.023c0,4.749,0.001,9.497-0.001,14.246
			c-0.001,1,0.162,1.004-0.941,1.002c-1.488-0.003-2.977-0.014-4.465,0.007c-0.443,0.006-0.671-0.109-0.613-0.588
			c0.021-0.175,0.003-0.354,0.003-0.532c0-8.682-0.001-17.363,0.001-26.045c0-1.376-0.114-1.153,1.203-1.167
			c0.957-0.011,1.916,0.037,2.87-0.016c0.641-0.035,1.02,0.205,1.39,0.715c2.701,3.729,5.433,7.436,8.154,11.149
			c0.984,1.343,1.965,2.688,2.95,4.03c0.116,0.159,0.243,0.31,0.543,0.42c0-0.336,0-0.673,0-1.009c0-4.678,0-9.355,0-14.033
			c0-0.248,0.011-0.497-0.002-0.744c-0.017-0.347,0.105-0.52,0.483-0.518c1.701,0.01,3.402,0.01,5.103,0
			c0.378-0.002,0.5,0.179,0.483,0.522c-0.01,0.212,0,0.425,0,0.638c0,8.682,0,17.364,0,26.046c0,0.177-0.017,0.356,0.002,0.531
			c0.052,0.481-0.188,0.604-0.626,0.598c-1.276-0.018-2.553-0.039-3.827,0.008c-0.587,0.022-0.794-0.358-1.063-0.725
			c-2.219-3.029-4.438-6.056-6.658-9.084c-1.59-2.17-3.18-4.341-4.771-6.511C233.47,201.359,233.397,201.372,233.325,201.384z"/>
		<path fill-rule="evenodd" clip-rule="evenodd" d="M309.628,205.903c0-0.585,0-0.921,0-1.259c0-4.712,0-9.424,0-14.137
			c0-0.248,0.008-0.496,0.001-0.744c-0.009-0.308,0.124-0.441,0.441-0.44c1.7,0.008,3.401,0.007,5.102,0.001
			c0.298-0.001,0.469,0.099,0.461,0.42c-0.004,0.248,0.002,0.496,0.002,0.744c0,8.68,0,17.361,0,26.042
			c0,0.106,0.001,0.212-0.001,0.319c-0.013,0.79-0.013,0.796-0.813,0.802c-1.098,0.007-2.198-0.036-3.295,0.016
			c-0.642,0.03-1.016-0.208-1.388-0.721c-3.58-4.928-7.187-9.836-10.789-14.748c-0.201-0.275-0.36-0.59-0.725-0.842
			c-0.198,0.392-0.118,0.777-0.119,1.138c-0.007,4.642-0.004,9.283-0.004,13.924c0,0.213-0.019,0.427,0.003,0.637
			c0.048,0.475-0.172,0.611-0.621,0.603c-1.275-0.021-2.551-0.007-3.827-0.007c-1.599,0-1.599,0-1.599-1.625
			c0-8.503-0.001-17.007,0.003-25.51c0-1.339-0.157-1.182,1.183-1.19c0.991-0.006,1.985,0.036,2.975-0.015
			c0.604-0.031,0.957,0.193,1.304,0.669c3.624,4.982,7.271,9.95,10.912,14.92C309.034,205.176,309.254,205.434,309.628,205.903z"/>
		<path fill-rule="evenodd" clip-rule="evenodd" d="M275.152,253.156c0-5.078-0.003-10.07,0.002-15.063
			c0.002-1.42-0.18-1.25,1.226-1.259c1.382-0.007,2.764,0.019,4.145-0.011c0.524-0.011,0.705,0.185,0.647,0.683
			c-0.024,0.21-0.004,0.425-0.004,0.637c0,8.574,0,17.146,0,25.72c0,0.248-0.016,0.497,0.003,0.743
			c0.032,0.417-0.152,0.561-0.559,0.557c-1.311-0.015-2.622-0.028-3.932,0.005c-0.542,0.015-0.73-0.362-0.974-0.694
			c-1.97-2.683-3.934-5.37-5.9-8.056c-1.673-2.286-3.348-4.569-5.023-6.854c-0.185-0.253-0.372-0.503-0.584-0.79
			c-0.299,0.272-0.185,0.566-0.186,0.813c-0.008,4.747-0.006,9.494-0.006,14.24c0,0.213-0.021,0.428,0.004,0.638
			c0.069,0.578-0.202,0.715-0.74,0.704c-1.487-0.031-2.976-0.006-4.463-0.013c-0.801-0.005-0.807-0.015-0.816-0.818
			c-0.008-0.709-0.001-1.417-0.001-2.126c0-8.042,0-16.083,0-24.125c0-0.283,0.006-0.566,0.002-0.85
			c-0.003-0.262,0.128-0.393,0.38-0.395c1.417-0.005,2.834-0.002,4.251-0.009c0.488-0.002,0.633,0.408,0.854,0.707
			c2.161,2.938,4.31,5.885,6.464,8.827c1.506,2.058,3.012,4.114,4.527,6.164C274.628,252.747,274.713,253.048,275.152,253.156z"/>
		<path fill-rule="evenodd" clip-rule="evenodd" d="M380.667,250.975c0,4.323,0,8.646,0,12.969c0,0.248-0.009,0.497,0,0.744
			c0.012,0.302-0.106,0.469-0.426,0.469c-1.736-0.002-3.472-0.002-5.208-0.001c-0.336,0-0.406-0.213-0.406-0.489
			c0-0.461-0.002-0.921-0.002-1.382c-0.001-2.8,0.002-5.599-0.002-8.398c-0.002-0.885-0.012-0.896-0.85-0.896
			c-3.438-0.005-6.875-0.005-10.313,0c-0.8,0.001-0.812,0.014-0.813,0.818c-0.006,3.153,0,6.308-0.004,9.462
			c-0.001,0.877-0.01,0.884-0.849,0.887c-1.452,0.006-2.905,0.008-4.358,0c-0.783-0.005-0.795-0.016-0.796-0.835
			c-0.004-4.359-0.002-8.717-0.002-13.076c0-4.5-0.001-9,0.002-13.501c0-0.9,0.007-0.906,0.933-0.909
			c1.418-0.005,2.835-0.007,4.252,0c0.805,0.005,0.816,0.015,0.818,0.81c0.005,3.047,0.001,6.095,0.002,9.142
			c0,0.248,0.006,0.496,0,0.744c-0.008,0.306,0.129,0.458,0.44,0.448c0.142-0.004,0.283,0.002,0.426,0.002
			c3.401,0,6.803,0.002,10.204-0.002c0.897,0,0.905-0.008,0.906-0.942c0.004-3.047,0.001-6.095,0.002-9.143
			c0-1.108-0.098-1.063,1.006-1.061c1.347,0.003,2.693,0.004,4.04,0c1.234-0.005,0.992,0.062,0.993,1.066
			C380.671,242.258,380.667,246.616,380.667,250.975z"/>
		<path fill-rule="evenodd" clip-rule="evenodd" d="M125.24,203.513c0-4.321,0-8.643,0-12.964c0-0.284-0.001-0.567,0.005-0.85
			c0.006-0.257,0.143-0.372,0.401-0.371c1.736,0.002,3.471,0.003,5.207,0c0.432-0.001,0.403,0.3,0.403,0.588
			c0,1.027,0,2.054,0,3.081c0,2.267,0.015,4.534-0.01,6.8c-0.006,0.548,0.153,0.733,0.718,0.73c3.506-0.022,7.013-0.008,10.52-0.014
			c0.725-0.001,0.741-0.019,0.742-0.787c0.007-3.046,0.003-6.092,0.003-9.139c0-0.248,0.01-0.496-0.001-0.743
			c-0.016-0.347,0.111-0.522,0.486-0.52c1.7,0.009,3.4,0.007,5.1,0.002c0.312,0,0.456,0.136,0.453,0.442
			c-0.002,0.212,0.001,0.425,0.001,0.638c0,8.713,0,17.426,0,26.14c0,0.177-0.013,0.355,0.001,0.531
			c0.033,0.395-0.107,0.584-0.535,0.581c-1.665-0.013-3.33-0.012-4.995,0c-0.443,0.003-0.523-0.228-0.516-0.602
			c0.016-0.744,0.004-1.487,0.004-2.231c0-2.515,0.004-5.03-0.003-7.544c-0.002-0.731-0.017-0.744-0.767-0.745
			c-3.471-0.005-6.942-0.005-10.413,0c-0.775,0.001-0.786,0.014-0.787,0.836c-0.004,3.152,0,6.305-0.004,9.457
			c-0.001,0.81-0.011,0.819-0.796,0.824c-1.452,0.008-2.904,0.006-4.356,0c-0.852-0.002-0.861-0.009-0.861-0.857
			C125.239,212.368,125.24,207.94,125.24,203.513z"/>
		<path fill-rule="evenodd" clip-rule="evenodd" d="M180.804,251.021c0-4.394-0.002-8.786,0.002-13.18
			c0-0.916-0.219-1.015,0.945-1.009c1.417,0.008,2.834-0.004,4.252,0.004c0.803,0.004,0.814,0.014,0.816,0.817
			c0.005,3.047,0.002,6.094,0.002,9.141c0,0.248,0.004,0.496,0.001,0.745c-0.003,0.307,0.141,0.455,0.453,0.44
			c0.141-0.007,0.283,0.001,0.425,0.001c3.401,0,6.802,0.002,10.204-0.002c0.901-0.001,0.909-0.009,0.91-0.939
			c0.003-3.047,0-6.094,0.001-9.141c0-1.18-0.087-1.063,1.105-1.064c1.417-0.002,2.834,0.018,4.251-0.009
			c0.505-0.01,0.682,0.146,0.67,0.665c-0.031,1.381-0.01,2.764-0.01,4.146c0,7.404,0,14.809,0,22.214
			c0,0.248-0.012,0.496,0.002,0.743c0.022,0.394-0.116,0.575-0.544,0.571c-1.629-0.017-3.259-0.021-4.889,0.002
			c-0.491,0.008-0.597-0.207-0.592-0.638c0.016-1.347,0.005-2.692,0.005-4.039c0-1.913,0.006-3.827-0.003-5.739
			c-0.004-0.743-0.02-0.759-0.77-0.761c-3.472-0.006-6.944-0.005-10.416,0c-0.788,0.002-0.801,0.015-0.802,0.835
			c-0.006,3.047-0.002,6.094-0.002,9.141c0,0.248-0.004,0.496-0.002,0.744c0.002,0.302-0.129,0.451-0.446,0.45
			c-1.701-0.006-3.401-0.007-5.102,0c-0.383,0.002-0.476-0.2-0.47-0.534c0.011-0.638,0.003-1.275,0.003-1.913
			C180.804,258.815,180.804,254.917,180.804,251.021z"/>
		<path fill-rule="evenodd" clip-rule="evenodd" d="M151.357,265.158c-1.638,0-3.255,0.02-4.872-0.005
			c-2.035-0.03-1.422,0.332-2.324-1.454c-0.317-0.627-0.424-1.466-0.979-1.84c-0.601-0.405-1.446-0.136-2.183-0.139
			c-3.72-0.016-7.44,0.018-11.16-0.026c-0.816-0.01-1.32,0.159-1.594,0.988c-0.231,0.7-0.621,1.347-0.931,2.022
			c-0.127,0.278-0.284,0.459-0.63,0.457c-2.045-0.011-4.09-0.005-6.145-0.005c-0.052-0.455,0.182-0.743,0.326-1.051
			c4.135-8.805,8.283-17.603,12.406-26.413c0.29-0.62,0.591-0.945,1.335-0.879c0.914,0.081,1.844,0.064,2.761,0.004
			c0.642-0.042,0.925,0.223,1.182,0.774c2.361,5.065,4.753,10.115,7.132,15.172c1.792,3.808,3.579,7.617,5.364,11.427
			C151.177,264.47,151.377,264.729,151.357,265.158z"/>
		<path fill-rule="evenodd" clip-rule="evenodd" d="M322.458,203.44c0-4.394,0.001-8.789-0.001-13.183
			c-0.001-0.968-0.053-0.932,0.916-0.932c5.706,0.002,11.411,0,17.116,0.002c0.862,0,0.87,0.009,0.873,0.857
			c0.007,1.453,0.007,2.906,0,4.358c-0.004,0.809-0.013,0.822-0.805,0.824c-3.119,0.006-6.237,0.002-9.355,0.002
			c-0.709,0-1.418,0.016-2.126-0.004c-0.408-0.012-0.563,0.138-0.557,0.551c0.018,1.275-0.002,2.552,0.008,3.827
			c0.006,0.752,0.02,0.767,0.762,0.769c2.586,0.007,5.173-0.006,7.761,0.01c0.555,0.003,1.255-0.252,1.631,0.125
			c0.378,0.379,0.112,1.079,0.124,1.635c0.024,1.169,0.015,2.339,0.005,3.508c-0.006,0.725-0.017,0.738-0.772,0.739
			c-2.87,0.006-5.74,0-8.611,0.003c-0.893,0.001-0.896,0.008-0.9,0.934c-0.004,1.134-0.008,2.268,0.002,3.402
			c0.006,0.75,0.016,0.762,0.749,0.764c2.587,0.006,5.174,0.002,7.761,0.002c1.239,0,2.48,0.016,3.721-0.008
			c0.454-0.009,0.621,0.129,0.615,0.6c-0.023,1.629-0.022,3.26-0.001,4.89c0.006,0.433-0.162,0.55-0.558,0.541
			c-0.815-0.018-1.631-0.005-2.445-0.005c-4.891,0-9.78,0-14.671,0c-0.248,0-0.496-0.009-0.744,0
			c-0.354,0.014-0.521-0.134-0.499-0.5c0.017-0.247,0.003-0.496,0.003-0.744C322.458,212.086,322.458,207.764,322.458,203.44z"/>
		<path fill-rule="evenodd" clip-rule="evenodd" d="M156.12,203.546c0-4.428,0.001-8.855-0.001-13.283
			c0-1.009-0.033-0.938,0.903-0.937c5.703,0.001,11.406-0.001,17.108,0.002c0.855,0,0.863,0.011,0.867,0.876
			c0.006,1.452,0.007,2.904-0.001,4.356c-0.004,0.792-0.015,0.806-0.833,0.807c-3.578,0.005-7.155,0.002-10.733,0.002
			c-0.248,0-0.497,0.018-0.743-0.003c-0.483-0.04-0.592,0.204-0.585,0.638c0.02,1.275,0.035,2.551-0.005,3.825
			c-0.019,0.597,0.24,0.697,0.754,0.693c2.727-0.017,5.455-0.008,8.182-0.008c0.248,0,0.498,0.019,0.744-0.004
			c0.492-0.044,0.691,0.128,0.681,0.656c-0.03,1.558-0.036,3.117,0.002,4.675c0.014,0.591-0.222,0.704-0.748,0.699
			c-2.691-0.02-5.383-0.009-8.076-0.009c-0.248,0-0.496-0.004-0.744,0.001c-0.763,0.016-0.775,0.017-0.781,0.74
			c-0.01,1.204-0.01,2.408,0,3.613c0.005,0.732,0.017,0.747,0.771,0.748c3.648,0.005,7.296,0,10.945,0.004
			c1.309,0.001,1.165-0.148,1.17,1.208c0.005,1.346,0.007,2.692-0.001,4.038c-0.005,0.748-0.016,0.765-0.763,0.767
			c-2.833,0.007-5.667,0.003-8.501,0.003c-2.905,0-5.809,0-8.714,0c-1,0-0.898,0.056-0.898-0.931
			C156.119,212.331,156.12,207.938,156.12,203.546z"/>
		<path fill-rule="evenodd" clip-rule="evenodd" d="M153.366,259.78c1.509-1.026,3.031-2.047,4.536-3.094
			c0.326-0.228,0.492-0.111,0.695,0.141c0.559,0.691,1.199,1.301,1.922,1.822c1.885,1.359,3.958,1.609,6.167,1.045
			c0.483-0.123,0.936-0.327,1.343-0.618c0.82-0.587,1.219-1.393,1.064-2.388c-0.157-1.009-0.821-1.636-1.789-1.885
			c-1.781-0.458-3.57-0.884-5.361-1.302c-1.748-0.409-3.359-1.097-4.75-2.253c-3.639-3.025-4.018-8.417-0.799-11.899
			c2.251-2.437,5.086-3.495,8.386-3.373c3.602,0.134,6.671,1.452,9.169,4.066c0.096,0.101,0.179,0.213,0.347,0.415
			c-1.557,1.249-3.09,2.479-4.658,3.734c-1.014-1.027-2.162-1.767-3.567-2.033c-1.125-0.214-2.25-0.236-3.367,0.066
			c-0.103,0.027-0.21,0.042-0.308,0.08c-1.122,0.436-2.016,1.125-2.14,2.398c-0.123,1.263,0.686,2.013,1.69,2.593
			c0.404,0.232,0.844,0.359,1.293,0.466c1.754,0.418,3.504,0.858,5.266,1.242c0.843,0.185,1.617,0.513,2.365,0.915
			c4.042,2.175,5.477,6.708,3.406,10.818c-1.484,2.943-3.942,4.56-7.149,5.082c-1.978,0.323-3.952,0.279-5.91-0.181
			C158.082,264.901,155.047,262.655,153.366,259.78z"/>
		<path fill-rule="evenodd" clip-rule="evenodd" d="M321.815,240.46c-1.458,1.171-2.893,2.315-4.319,3.472
			c-0.227,0.185-0.406,0.236-0.623-0.004c-0.142-0.156-0.31-0.292-0.476-0.425c-1.889-1.512-4.022-1.798-6.314-1.237
			c-0.304,0.073-0.601,0.217-0.872,0.376c-1.87,1.104-1.941,3.165-0.16,4.398c0.531,0.368,1.121,0.589,1.749,0.734
			c1.723,0.399,3.436,0.84,5.163,1.215c0.879,0.19,1.685,0.533,2.468,0.944c4.804,2.531,4.917,7.42,3.486,10.554
			c-1.112,2.436-2.974,4.131-5.558,4.916c-2.852,0.865-5.732,0.873-8.575-0.043c-2.951-0.951-5.14-2.898-6.947-5.538
			c1.647-1.126,3.265-2.23,4.928-3.367c0.619,0.682,1.197,1.351,1.887,1.905c1.974,1.587,4.188,1.955,6.601,1.323
			c0.447-0.117,0.865-0.311,1.247-0.575c0.826-0.571,1.27-1.367,1.13-2.36c-0.147-1.044-0.823-1.7-1.849-1.957
			c-1.989-0.498-3.985-0.972-5.976-1.472c-1.641-0.412-3.08-1.209-4.37-2.307c-4.021-3.42-3.008-8.921-0.63-11.545
			c2.257-2.489,5.099-3.604,8.44-3.493c3.6,0.12,6.682,1.417,9.185,4.031C321.551,240.132,321.656,240.272,321.815,240.46z"/>
		<path fill-rule="evenodd" clip-rule="evenodd" d="M352.128,240.342c-1.427,1.431-2.798,2.805-4.169,4.18
			c-4.377-3.999-10.103-2.803-12.998,0.423c-3.037,3.386-3.091,8.502-0.139,11.937c2.865,3.335,8.693,4.636,13.159,0.573
			c1.373,1.377,2.747,2.751,4.124,4.131c-2.932,3.657-9.071,5.393-14.505,3.91c-6.014-1.64-10.612-7.18-10.938-13.194
			c-0.38-7.011,3.278-12.975,9.454-15.338C341.672,234.837,348.393,236.116,352.128,240.342z"/>
		<path fill-rule="evenodd" clip-rule="evenodd" d="M105.511,250.918c0-4.359-0.002-8.717,0.001-13.076
			c0-0.949-0.189-1.011,0.942-1.01c5.669,0.003,11.339,0.001,17.009,0.002c0.177,0,0.354,0.003,0.532,0.004
			c0.313,0,0.425,0.162,0.424,0.468c-0.007,1.701-0.011,3.402,0,5.103c0.003,0.484-0.304,0.471-0.637,0.47
			c-1.134-0.003-2.268-0.001-3.402-0.001c-2.693,0-5.386-0.004-8.079,0.002c-0.766,0.003-0.777,0.015-0.782,0.737
			c-0.009,1.204-0.01,2.409,0,3.614c0.006,0.731,0.019,0.746,0.776,0.747c2.764,0.006,5.528,0.003,8.292,0.003
			c0.248,0,0.497,0.01,0.744-0.002c0.352-0.016,0.511,0.127,0.509,0.494c-0.009,1.665-0.018,3.331,0.004,4.996
			c0.007,0.554-0.33,0.52-0.696,0.52c-2.693-0.002-5.386-0.002-8.08-0.002c-0.248,0-0.496-0.003-0.744,0.001
			c-0.792,0.015-0.805,0.017-0.806,0.828c-0.005,3.153-0.004,6.308-0.001,9.461c0.001,0.854,0.063,0.894-0.859,0.885
			c-1.417-0.012-2.835,0.001-4.252-0.005c-0.888-0.003-0.895-0.01-0.895-0.95C105.51,259.776,105.511,255.348,105.511,250.918z"/>
		<path fill-rule="evenodd" clip-rule="evenodd" d="M108.931,206.535c0-3.436,0.002-6.871-0.002-10.306
			c-0.001-0.846-0.01-0.854-0.877-0.857c-1.735-0.006-3.471,0.003-5.206-0.005c-0.737-0.003-0.749-0.017-0.752-0.765
			c-0.008-1.523,0.017-3.046-0.013-4.569c-0.01-0.543,0.143-0.728,0.713-0.72c2.302,0.032,4.604,0.013,6.907,0.013
			c3.754,0,7.508-0.002,11.263,0.002c0.861,0,0.869,0.01,0.873,0.869c0.006,1.488-0.022,2.976,0.014,4.462
			c0.014,0.573-0.196,0.727-0.734,0.719c-1.664-0.024-3.329-0.008-4.994-0.009c-1.348-0.001-1.172-0.057-1.173,1.224
			c-0.003,6.587-0.001,13.175-0.001,19.763c0,0.248-0.017,0.497,0.003,0.744c0.033,0.399-0.107,0.565-0.533,0.561
			c-1.629-0.019-3.259-0.019-4.887,0c-0.454,0.005-0.617-0.143-0.608-0.606c0.025-1.31,0.009-2.621,0.009-3.931
			C108.931,210.927,108.931,208.731,108.931,206.535z"/>
		<path fill-rule="evenodd" clip-rule="evenodd" d="M454.408,250.865c0-4.321-0.001-8.643,0-12.964c0-1.18-0.088-1.065,1.103-1.067
			c1.346-0.002,2.692,0.006,4.038-0.002c1.035-0.006,0.876,0.105,0.876,0.866c0,3.33,0,6.659,0,9.989
			c0,3.542-0.003,7.084,0.002,10.626c0.001,0.79,0.013,0.802,0.816,0.804c3.437,0.005,6.872,0,10.308,0.003
			c0.873,0.002,0.883,0.011,0.888,0.86c0.007,1.487-0.017,2.976,0.012,4.463c0.01,0.548-0.165,0.728-0.727,0.726
			c-5.526-0.018-11.052-0.008-16.578-0.014c-0.726-0.001-0.735-0.02-0.736-0.9C454.406,259.792,454.408,255.328,454.408,250.865z"/>
		<path fill-rule="evenodd" clip-rule="evenodd" d="M257.319,203.556c0-4.356,0-8.712,0-13.069c0-0.248,0.006-0.496,0.001-0.743
			c-0.007-0.32,0.158-0.421,0.459-0.42c1.7,0.007,3.4,0.007,5.101,0.001c0.311-0.001,0.452,0.127,0.445,0.438
			c-0.007,0.283,0,0.567,0,0.85c0,6.552,0,13.104,0,19.656c0,0.213,0.019,0.427-0.004,0.637c-0.058,0.526,0.105,0.787,0.692,0.739
			c0.563-0.045,1.132-0.01,1.699-0.01c2.939,0,5.879-0.003,8.818,0.002c0.815,0.002,0.827,0.014,0.831,0.803
			c0.008,1.452,0.007,2.904,0,4.356c-0.004,0.844-0.012,0.854-0.889,0.855c-4.037,0.004-8.075,0.001-12.112,0.001
			c-1.452,0-2.905-0.027-4.356,0.013c-0.576,0.016-0.7-0.187-0.698-0.724C257.327,212.481,257.319,208.019,257.319,203.556z"/>
		<path fill-rule="evenodd" clip-rule="evenodd" d="M211.654,250.867c0-4.322-0.003-8.645,0.002-12.966
			c0.001-1.076-0.214-1.069,1.098-1.068c1.311,0.002,2.622,0.002,3.933,0c1.104-0.002,1.01-0.052,1.01,1.057
			c0,4.039,0,8.077,0,12.116c0,4.605,0,9.211,0,13.816c0,0.248-0.016,0.497,0.003,0.744c0.036,0.469-0.184,0.607-0.63,0.6
			c-1.133-0.022-2.268,0.007-3.401-0.013c-0.63-0.012-1.416,0.265-1.849-0.131c-0.445-0.406-0.157-1.203-0.159-1.826
			C211.647,259.086,211.654,254.977,211.654,250.867z"/>
		<path fill-rule="evenodd" clip-rule="evenodd" d="M279.618,203.487c0-4.323,0-8.646,0-12.969c0-0.248,0.008-0.497,0.001-0.744
			c-0.008-0.305,0.115-0.451,0.437-0.449c1.701,0.007,3.401,0.009,5.103-0.001c0.381-0.002,0.495,0.178,0.478,0.52
			c-0.012,0.212-0.001,0.425-0.001,0.638c0,8.682,0,17.363,0,26.045c0,0.106,0.001,0.213-0.001,0.319
			c-0.013,0.793-0.014,0.803-0.814,0.807c-1.488,0.007-2.977,0.008-4.465,0c-0.721-0.004-0.734-0.016-0.734-0.77
			C279.615,212.417,279.618,207.952,279.618,203.487z"/>
		<path fill-rule="evenodd" clip-rule="evenodd" fill="#FFFFFF" d="M237.719,259.969c-5.086-0.085-8.946-4.148-8.863-9.294
			c0.074-4.627,4.185-8.815,9.173-8.678c4.966,0.138,8.873,4.143,8.797,9.147C246.752,256.125,242.701,260.05,237.719,259.969z"/>
		<path fill-rule="evenodd" clip-rule="evenodd" fill="#FFFFFF" d="M198.177,203.531c-0.204-4.611,3.859-9.028,8.917-9.021
			c4.97,0.007,9.01,3.956,9.026,8.917c0.017,5.018-3.923,8.976-8.869,9.078C202.321,212.606,198.014,208.324,198.177,203.531z"/>
		<path fill-rule="evenodd" clip-rule="evenodd" fill="#FFFFFF" d="M434.237,259.969c-5.044-0.02-9.009-4.037-8.96-9.078
			c0.048-4.988,4.043-8.907,9.051-8.881c4.979,0.026,8.936,4.034,8.908,9.024C443.21,256.028,439.222,259.987,434.237,259.969z"/>
		<path fill-rule="evenodd" clip-rule="evenodd" fill="#FFFFFF" d="M400.781,259.969c-5.027-0.023-9.024-4.069-8.975-9.085
			c0.051-4.956,4.09-8.904,9.079-8.874c4.971,0.03,8.932,4.045,8.913,9.03C409.781,256.001,405.75,259.991,400.781,259.969z"/>
		<path fill-rule="evenodd" clip-rule="evenodd" fill="#FFFFFF" d="M140.39,255.659c-2.975,0-5.798,0-8.793,0
			c1.393-3.134,2.866-6.138,4.377-9.367C137.482,249.493,138.9,252.498,140.39,255.659z"/>
	</g>
</g>
</svg>
