<?xml version="1.0" encoding="utf-8"?>
<!-- Generator: Adobe Illustrator 19.2.1, SVG Export Plug-In . SVG Version: 6.00 Build 0)  -->




<svg version="1.1" xmlns="http://www.w3.org/2000/svg" xmlns:xlink="http://www.w3.org/1999/xlink" x="0px" y="0px"
	 viewBox="0 0 512 512" style="enable-background:new 0 0 512 512;" xml:space="preserve">




<style type="text/css">
	.st0{fill:#298063;}
	.st1{fill:#87B7DD;}
	.st2{fill:#1F3049;}
	.st3{fill:#B9BDC2;}
	.st4{fill:#CA6A46;}
	.st5{fill:#5082A9;}
	.st6{fill:#D5872A;}
	.st7{fill:#57646E;}
	.st8{fill:#75A897;}
	.st9{fill:#C93A3A;}
	.st10{fill:#E6CA56;}
	.st11{fill:#DA8B80;}
	.st12{fill:#E4C856;}
	.st13{fill:#C9402E;}
	.st14{fill:#A32929;}
	.st15{clip-path:url(#SVGID_2_);}
	.st16{fill:#D17F73;}
	.st17{fill:#E6A585;}
	.st18{fill:#733D28;}
	.st19{fill:#FFFFFF;}
	.st20{fill:#4E3333;}
	.st21{clip-path:url(#SVGID_4_);}
	.st22{fill:#FFB6AB;}
	.st23{clip-path:url(#SVGID_6_);}
	.st24{clip-path:url(#SVGID_8_);}
	.st25{clip-path:url(#SVGID_10_);}
	.st26{fill:#F09162;}
	.st27{clip-path:url(#SVGID_12_);}
	.st28{clip-path:url(#SVGID_14_);}
	.st29{clip-path:url(#SVGID_16_);}
	.st30{clip-path:url(#SVGID_18_);}
	.st31{clip-path:url(#SVGID_20_);}
	.st32{clip-path:url(#SVGID_22_);}
	.st33{fill:#572020;}
	.st34{clip-path:url(#SVGID_24_);}
	.st35{clip-path:url(#SVGID_26_);}
	.st36{clip-path:url(#SVGID_28_);}
	.st37{fill:#A34B2A;}
	.st38{clip-path:url(#SVGID_30_);}
	.st39{clip-path:url(#SVGID_32_);}
	.st40{clip-path:url(#SVGID_34_);}
	.st41{clip-path:url(#SVGID_36_);}
	.st42{fill:#E09C6F;}
	.st43{clip-path:url(#SVGID_38_);}
	.st44{clip-path:url(#SVGID_40_);}
	.st45{clip-path:url(#SVGID_42_);}
	.st46{clip-path:url(#SVGID_44_);}
	.st47{clip-path:url(#SVGID_46_);}
	.st48{clip-path:url(#SVGID_48_);}
	.st49{clip-path:url(#SVGID_50_);}
	.st50{clip-path:url(#SVGID_52_);}
	.st51{clip-path:url(#SVGID_54_);}
	.st52{clip-path:url(#SVGID_56_);}
	.st53{clip-path:url(#SVGID_58_);}
	.st54{clip-path:url(#SVGID_60_);}
	.st55{clip-path:url(#SVGID_62_);}
	.st56{clip-path:url(#SVGID_64_);fill:#75A897;}
	.st57{clip-path:url(#SVGID_64_);fill:#A34B2A;}
	.st58{clip-path:url(#SVGID_64_);}
	.st59{clip-path:url(#SVGID_64_);fill:#1F3049;}
	.st60{clip-path:url(#SVGID_66_);}
	.st61{clip-path:url(#SVGID_68_);}
	.st62{clip-path:url(#SVGID_70_);}
	.st63{clip-path:url(#SVGID_72_);}
	.st64{clip-path:url(#SVGID_74_);}
	.st65{clip-path:url(#SVGID_76_);}
	.st66{clip-path:url(#SVGID_78_);}
	.st67{clip-path:url(#SVGID_80_);}
	.st68{clip-path:url(#SVGID_82_);}
	.st69{clip-path:url(#SVGID_84_);}
	.st70{clip-path:url(#SVGID_86_);}
	.st71{clip-path:url(#SVGID_88_);}
	.st72{clip-path:url(#SVGID_90_);}
	.st73{clip-path:url(#SVGID_92_);}
	.st74{clip-path:url(#SVGID_94_);}
	.st75{clip-path:url(#SVGID_96_);}
	.st76{clip-path:url(#SVGID_98_);}
	.st77{clip-path:url(#SVGID_98_);fill:none;}
	.st78{clip-path:url(#SVGID_100_);}
</style>



<g id="ICON">
	<g>
		<ellipse class="st1" cx="256.4" cy="254.8" rx="228.4" ry="228.4"/>
	</g>
</g>
<g id="Layer_6">
	<g>
		<defs>
			<ellipse id="SVGID_41_" cx="256.4" cy="254.4" rx="228.4" ry="228.4"/>
		</defs>
		<clipPath id="SVGID_2_">
			<use xlink:href="#SVGID_41_"  style="overflow:visible;"/>
		</clipPath>


		<g class="st15">
			<path class="st5" d="M464.3,524l-0.1-1c0-58-21.2-114.2-47.1-124.9l-110.3-45.5c-25.9-10.7-68.3-10.7-94.2-0.1l-111.9,45.8
				C74.8,408.9,53.6,465.1,53.6,523l-0.1,1H464.3z"/>
			<path class="st26" d="M308,366.7c0,25.6-20.7,46.3-46.3,46.3h-5.6c-25.6,0-46.3-20.7-46.3-46.3V247.3c0-25.6,20.7-46.3,46.3-46.3
				h5.6c25.6,0,46.3,20.7,46.3,46.3V366.7z"/>
			<g>
				<path class="st17" d="M374.9,254.2c0,6.3-5.1,11.4-11.4,11.4l0,0c-6.3,0-11.5-5.1-11.5-11.4v-44.9c0-6.3,5.1-11.4,11.5-11.4l0,0
					c6.3,0,11.4,5.1,11.4,11.4V254.2z"/>
				<path class="st17" d="M165.8,254.2c0,6.3-5.1,11.4-11.5,11.4l0,0c-6.3,0-11.4-5.1-11.4-11.4v-44.9c0-6.3,5.1-11.4,11.4-11.4l0,0
					c6.3,0,11.5,5.1,11.5,11.4V254.2z"/>
			</g>
			<g>
				<path class="st17" d="M165.4,157.8c0-27.2,23-49.2,51.4-49.2h84.1c28.4,0,51.4,22,51.4,49.2l1.3,127.9c0,27.2-23,49.2-51.4,49.2
					h-86.6c-28.4,0-51.4-22-51.4-49.2L165.4,157.8z"/>
				<g>
					<path class="st2" d="M302.2,262h-86.6c-25.5,0-47.3-17.8-51.4-41.1v64.9c0,27.2,23,49.2,51.4,49.2h86.6
						c28.4,0,51.4-22,51.4-49.2v-64.8C349.5,244.2,327.7,262,302.2,262z"/>
				</g>
			</g>
			<g>
				<rect x="338.3" y="152.9" class="st2" width="15.4" height="107.3"/>
				<rect x="164.1" y="148.6" class="st2" width="15.4" height="107.3"/>
			</g>
			<path class="st2" d="M332.5,143.8c0,16.1-11.8,29.1-26.3,29.1h-94.7c-14.5,0-26.3-13-26.3-29.1l0,0c0-16.1,11.8-29.1,26.3-29.1
				h94.7C320.7,114.7,332.5,127.8,332.5,143.8L332.5,143.8z"/>
			<g>
				<g>
					<path class="st19" d="M228.9,279.5c0.5,18.7,13.7,33.6,30,33.6c16.2,0,29.4-14.9,30-33.6c-8.3,4.4-18.7,7-30,7
						C247.6,286.5,237.3,283.9,228.9,279.5z"/>
				</g>
			</g>
			<g>
				<circle class="st2" cx="226" cy="216.9" r="9.9"/>
				<circle class="st2" cx="291.7" cy="216.9" r="9.9"/>
			</g>
			<g>
				<g>
					<path class="st18" d="M207.1,203.1c10-5,21-6.7,32.1-6.5c10.1,0.2,10-15.4,0-15.6c-13.9-0.3-27.5,2.4-39.9,8.6
						C190.2,194.1,198.1,207.6,207.1,203.1L207.1,203.1z"/>
				</g>
				<g>
					<path class="st18" d="M310.7,203.1c-9.9-5-21-6.7-32.1-6.5c-10.1,0.2-10-15.4,0-15.6c13.9-0.3,27.5,2.4,39.9,8.6
						C327.6,194.1,319.7,207.6,310.7,203.1L310.7,203.1z"/>
				</g>
			</g>
			<path class="st2" d="M354.2,158.4v-54.2c0-10.6-8.6-19.2-19.2-19.2H182.8c-10.6,0-19.2,8.6-19.2,19.2v54.2H354.2z"/>
		</g>
	</g>
</g>
</svg>
